<svg width="145" height="100" viewBox="0 0 145 100" fill="none" xmlns="http://www.w3.org/2000/svg">
<path fill-rule="evenodd" clip-rule="evenodd" d="M72.1727 0.0534441C71.0037 0.472667 69.1428 2.6352 68.4501 3.65363C63.6737 10.6767 71.1878 18.1737 72.9444 17.5342C75.2945 16.6788 82.6385 8.17962 74.4745 1.23455C73.9615 0.798129 73.0106 -0.247051 72.1726 0.0534441H72.1727Z" fill="#3B883E"/>
<path fill-rule="evenodd" clip-rule="evenodd" d="M78.2204 38.4457C78.8172 34.0119 75.6263 30.4763 73.442 28.8606C72.3748 28.0712 71.7938 28.6594 70.9899 29.365C70.3705 29.9089 69.7892 30.4474 69.2302 31.1752C65.2217 36.393 66.6567 41.9499 71.7007 45.6234C72.8545 46.4637 73.2362 45.7287 74.0748 45.099L75.8939 43.3506C76.9662 41.98 77.9066 40.7772 78.2204 38.4457H78.2204Z" fill="#3B883E"/>
<path fill-rule="evenodd" clip-rule="evenodd" d="M78.1349 23.1375C78.1584 24.0533 80.9112 26.2997 81.6128 26.7848C89.7452 32.4089 95.5739 24.0635 95.5014 22.9953C95.4287 21.9237 92.8825 19.7847 92.111 19.2305C84.9954 14.1196 78.1068 22.0478 78.1349 23.1375Z" fill="#3B883E"/>
<path fill-rule="evenodd" clip-rule="evenodd" d="M49.5011 23.1389C49.6014 23.9899 52.1952 26.3814 52.8401 26.9072C59.3256 32.1955 66.9415 24.5428 66.7985 23.0208C66.7023 21.9965 64.1539 19.9726 63.3096 19.3889C55.2552 13.8213 49.4087 22.3553 49.5011 23.139V23.1389Z" fill="#3B883E"/>
<path fill-rule="evenodd" clip-rule="evenodd" d="M65.3722 38.3604C65.1407 36.0658 65.2743 34.2484 65.9581 32.2015C66.5285 30.4942 68.2815 28.0525 68.1465 27.6263C67.8103 26.5656 66.1792 28.4283 63.59 29.3814C61.7483 30.0593 59.896 30.2913 57.6693 30.3067C55.3512 33.1103 55.4046 38.4446 56.2 39.2844C56.8747 39.9969 60.0537 39.9072 61.1768 39.7708C62.8052 39.5731 64.1753 38.9753 65.3722 38.3604Z" fill="#3B883E"/>
<path fill-rule="evenodd" clip-rule="evenodd" d="M57.4961 15.8539C61.1951 16.3186 62.1769 15.9737 65.7285 17.8655C66.3304 18.1861 67.4668 19.1196 68.0748 18.88C68.5793 18.423 67.7237 17.6688 67.1268 16.6218C66.1732 14.9492 65.5924 13.2956 65.3157 11.2872C65.1416 10.0238 65.3627 9.06842 65.3211 8.01932C62.6675 6.32808 57.4749 5.96603 56.2258 7.00664C55.5021 7.60959 55.7228 10.7986 55.9048 11.7895C56.2884 13.8786 56.7283 14.292 57.4961 15.8539Z" fill="#3B883E"/>
<path fill-rule="evenodd" clip-rule="evenodd" d="M83.9436 39.7539C85.0356 39.9061 88.2555 40.0471 88.8948 39.2743C89.7023 38.298 89.4368 32.5964 87.4142 30.3296C84.8726 30.1816 83.5639 30.1654 81.371 29.3827C78.9042 28.5023 77.1518 26.6091 76.8421 27.6223C76.7229 28.0127 77.8074 29.4998 78.0541 29.8882C79.4272 32.049 80.2729 35.7751 79.7388 38.3268C81.0379 38.8661 82.1688 39.5066 83.9437 39.7539H83.9436Z" fill="#3B883E"/>
<path fill-rule="evenodd" clip-rule="evenodd" d="M79.776 8.13042C79.881 12.0204 79.487 14.3896 77.2638 17.6864C77.2088 17.768 76.8969 18.2063 76.8931 18.2153C76.5973 18.9214 77.1092 19.2957 78.0745 18.6341C81.1948 16.4952 83.5283 15.9687 87.5222 15.9074C88.1486 14.5459 88.7461 14.1454 89.1129 11.9944C89.2935 10.9354 89.6125 7.62076 88.7856 6.9597C87.7135 6.10257 81.9611 6.18939 79.7761 8.13054L79.776 8.13042Z" fill="#3B883E"/>
<path fill-rule="evenodd" clip-rule="evenodd" d="M75.2408 23.5838C75.9074 20.0847 70.4052 18.875 69.7113 22.6039C69.0273 26.2797 74.505 27.4458 75.2408 23.5838Z" fill="#3B883E"/>
<g clip-path="url(#clip0_2829_91825)">
<path d="M11.7036 89.396C9.54359 89.396 7.67159 89.024 6.08759 88.28C4.52759 87.512 3.32759 86.432 2.48759 85.04C1.64759 83.648 1.22759 82.004 1.22759 80.108C1.22759 78.284 1.62359 76.688 2.41559 75.32C3.23159 73.928 4.33559 72.848 5.72759 72.08C7.14359 71.288 8.75159 70.892 10.5516 70.892C11.8716 70.892 13.0716 71.108 14.1516 71.54C15.2316 71.948 16.1556 72.56 16.9236 73.376C17.6916 74.168 18.2676 75.128 18.6516 76.256C19.0596 77.384 19.2636 78.644 19.2636 80.036C19.2636 80.516 19.1316 80.876 18.8676 81.116C18.6036 81.332 18.1836 81.44 17.6076 81.44H6.59159V78.416H14.5836L14.0076 78.884C14.0076 77.996 13.8876 77.276 13.6476 76.724C13.4076 76.172 13.0476 75.752 12.5676 75.464C12.1116 75.176 11.5356 75.032 10.8396 75.032C10.0956 75.032 9.44759 75.212 8.89559 75.572C8.36759 75.908 7.95959 76.412 7.67159 77.084C7.38359 77.756 7.23959 78.596 7.23959 79.604V79.928C7.23959 81.632 7.61159 82.856 8.35559 83.6C9.12359 84.32 10.2996 84.68 11.8836 84.68C12.4116 84.68 13.0116 84.62 13.6836 84.5C14.3796 84.356 15.0396 84.164 15.6636 83.924C16.2876 83.684 16.8276 83.648 17.2836 83.816C17.7396 83.96 18.0876 84.224 18.3276 84.608C18.5916 84.968 18.7356 85.388 18.7596 85.868C18.7836 86.324 18.6756 86.78 18.4356 87.236C18.1956 87.668 17.7996 88.004 17.2476 88.244C16.4076 88.628 15.5076 88.916 14.5476 89.108C13.6116 89.3 12.6636 89.396 11.7036 89.396ZM25.1923 89.324C24.1843 89.324 23.4043 89.048 22.8523 88.496C22.3003 87.944 22.0243 87.14 22.0243 86.084V66.536C22.0243 65.48 22.3003 64.676 22.8523 64.124C23.4043 63.572 24.1843 63.296 25.1923 63.296C26.2243 63.296 27.0163 63.572 27.5683 64.124C28.1443 64.676 28.4323 65.48 28.4323 66.536V78.416H28.5043L32.8963 73.088C33.4963 72.368 34.0483 71.84 34.5523 71.504C35.0803 71.144 35.7883 70.964 36.6763 70.964C37.5643 70.964 38.2483 71.18 38.7283 71.612C39.2083 72.044 39.4603 72.584 39.4843 73.232C39.5083 73.88 39.2443 74.528 38.6923 75.176L33.9403 80.792V78.56L39.2683 85.256C39.7963 85.928 40.0123 86.588 39.9163 87.236C39.8203 87.86 39.5083 88.364 38.9803 88.748C38.4763 89.132 37.8283 89.324 37.0363 89.324C36.0763 89.324 35.3083 89.156 34.7323 88.82C34.1563 88.46 33.5803 87.908 33.0043 87.164L28.5043 81.62H28.4323V86.084C28.4323 88.244 27.3523 89.324 25.1923 89.324ZM49.6392 89.396C47.3352 89.396 45.6312 88.784 44.5272 87.56C43.4472 86.312 42.9072 84.44 42.9072 81.944V66.536C42.9072 65.48 43.1832 64.676 43.7352 64.124C44.2872 63.572 45.0672 63.296 46.0752 63.296C47.1072 63.296 47.8992 63.572 48.4512 64.124C49.0272 64.676 49.3152 65.48 49.3152 66.536V81.728C49.3152 82.616 49.4832 83.264 49.8192 83.672C50.1792 84.08 50.6352 84.284 51.1872 84.284C51.3552 84.284 51.5232 84.272 51.6912 84.248C51.8832 84.2 52.0872 84.164 52.3032 84.14C52.7112 84.14 53.0112 84.296 53.2032 84.608C53.4192 84.92 53.5272 85.556 53.5272 86.516C53.5272 87.356 53.3592 87.992 53.0232 88.424C52.6872 88.832 52.1712 89.096 51.4752 89.216C51.2832 89.24 51.0072 89.276 50.6472 89.324C50.2872 89.372 49.9512 89.396 49.6392 89.396ZM61.5788 89.396C60.2108 89.396 58.9988 89.144 57.9428 88.64C56.9108 88.136 56.0948 87.452 55.4948 86.588C54.9188 85.7 54.6308 84.692 54.6308 83.564C54.6308 82.268 54.9668 81.248 55.6388 80.504C56.3108 79.76 57.3908 79.232 58.8788 78.92C60.3668 78.584 62.3468 78.416 64.8188 78.416H66.7988V81.44H64.8188C63.8828 81.44 63.1028 81.512 62.4788 81.656C61.8788 81.776 61.4348 81.98 61.1468 82.268C60.8588 82.532 60.7148 82.88 60.7148 83.312C60.7148 83.864 60.9068 84.32 61.2908 84.68C61.6988 85.04 62.2748 85.22 63.0188 85.22C63.6188 85.22 64.1468 85.088 64.6028 84.824C65.0828 84.56 65.4668 84.2 65.7548 83.744C66.0428 83.264 66.1868 82.712 66.1868 82.088V77.912C66.1868 77.048 65.9588 76.436 65.5028 76.076C65.0708 75.716 64.3148 75.536 63.2348 75.536C62.6588 75.536 62.0108 75.608 61.2908 75.752C60.5708 75.872 59.7668 76.1 58.8788 76.436C58.2308 76.676 57.6788 76.712 57.2228 76.544C56.7668 76.376 56.4068 76.088 56.1428 75.68C55.9028 75.272 55.7828 74.828 55.7828 74.348C55.8068 73.868 55.9628 73.412 56.2508 72.98C56.5628 72.548 57.0308 72.212 57.6548 71.972C58.8068 71.54 59.8628 71.252 60.8228 71.108C61.8068 70.964 62.7068 70.892 63.5228 70.892C65.4908 70.892 67.1108 71.18 68.3828 71.756C69.6788 72.308 70.6388 73.172 71.2628 74.348C71.9108 75.5 72.2348 76.988 72.2348 78.812V86.084C72.2348 87.14 71.9828 87.944 71.4788 88.496C70.9748 89.048 70.2428 89.324 69.2828 89.324C68.2988 89.324 67.5428 89.048 67.0148 88.496C66.5108 87.944 66.2588 87.14 66.2588 86.084V85.148L66.4748 85.652C66.3548 86.42 66.0788 87.08 65.6468 87.632C65.2148 88.184 64.6508 88.616 63.9548 88.928C63.2588 89.24 62.4668 89.396 61.5788 89.396ZM79.0517 89.324C78.0437 89.324 77.2637 89.048 76.7117 88.496C76.1597 87.944 75.8837 87.14 75.8837 86.084V74.168C75.8837 73.136 76.1477 72.344 76.6757 71.792C77.2277 71.24 78.0077 70.964 79.0157 70.964C80.0237 70.964 80.7917 71.24 81.3197 71.792C81.8477 72.344 82.1117 73.136 82.1117 74.168V75.86L81.7157 74.384C82.2917 73.256 83.1077 72.392 84.1637 71.792C85.2437 71.192 86.4677 70.892 87.8357 70.892C89.2517 70.892 90.4157 71.168 91.3277 71.72C92.2397 72.248 92.9237 73.088 93.3797 74.24C93.8357 75.368 94.0637 76.796 94.0637 78.524V86.084C94.0637 87.14 93.7877 87.944 93.2357 88.496C92.6837 89.048 91.8917 89.324 90.8597 89.324C89.8277 89.324 89.0357 89.048 88.4837 88.496C87.9317 87.944 87.6557 87.14 87.6557 86.084V78.776C87.6557 77.696 87.4637 76.928 87.0797 76.472C86.7197 76.016 86.1797 75.788 85.4597 75.788C84.4997 75.788 83.7317 76.1 83.1557 76.724C82.5797 77.324 82.2917 78.14 82.2917 79.172V86.084C82.2917 88.244 81.2117 89.324 79.0517 89.324ZM109.637 89.324C108.893 89.324 108.269 89.156 107.765 88.82C107.261 88.46 106.949 87.98 106.829 87.38C106.709 86.756 106.817 86.06 107.153 85.292L116.117 65.996C116.549 65.06 117.077 64.376 117.701 63.944C118.349 63.512 119.081 63.296 119.897 63.296C120.713 63.296 121.421 63.512 122.021 63.944C122.645 64.376 123.185 65.06 123.641 65.996L132.605 85.292C132.989 86.06 133.121 86.756 133.001 87.38C132.905 88.004 132.605 88.484 132.101 88.82C131.621 89.156 131.021 89.324 130.301 89.324C129.341 89.324 128.597 89.108 128.069 88.676C127.565 88.244 127.109 87.548 126.701 86.588L124.757 82.016L127.277 83.852H112.445L115.001 82.016L113.057 86.588C112.625 87.548 112.181 88.244 111.725 88.676C111.269 89.108 110.573 89.324 109.637 89.324ZM119.825 70.532L115.649 80.504L114.641 78.776H125.117L124.109 80.504L119.897 70.532H119.825ZM139.218 89.324C138.162 89.324 137.346 89.036 136.77 88.46C136.194 87.86 135.906 87.02 135.906 85.94V66.68C135.906 65.576 136.194 64.736 136.77 64.16C137.346 63.584 138.162 63.296 139.218 63.296C140.298 63.296 141.114 63.584 141.666 64.16C142.242 64.736 142.53 65.576 142.53 66.68V85.94C142.53 87.02 142.254 87.86 141.702 88.46C141.15 89.036 140.322 89.324 139.218 89.324Z" fill="#3B883E"/>
</g>
<defs>
<clipPath id="clip0_2829_91825">
<rect width="145" height="46" fill="white" transform="translate(0 54)"/>
</clipPath>
</defs>
</svg>
