<svg width="16" height="18" viewBox="0 0 16 18" fill="none" xmlns="http://www.w3.org/2000/svg">
<path d="M15.4988 6.14118C14.188 6.88235 13.3783 8.15294 13.3783 9.56471C13.3783 11.1529 14.4193 12.6 16 13.2C15.6916 14.1176 15.2289 14.9647 14.6506 15.7412C13.8024 16.8353 12.9157 17.9647 11.6048 17.9647C10.294 17.9647 9.90843 17.2588 8.36627 17.2588C6.86265 17.2588 6.32289 18 5.08916 18C3.85542 18 3.00723 16.9765 2.04337 15.7059C0.771084 13.9412 0.0385542 11.8941 0 9.74118C0 6.24706 2.46747 4.37647 4.93494 4.37647C6.24578 4.37647 7.3253 5.15294 8.13494 5.15294C8.90602 5.15294 10.1398 4.34118 11.6048 4.34118C13.147 4.30588 14.612 4.97647 15.4988 6.14118ZM10.9108 2.85882C11.5663 2.15294 11.9133 1.27059 11.9518 0.352941C11.9518 0.247059 11.9518 0.105882 11.9133 0C10.7952 0.105882 9.75422 0.6 9.02169 1.37647C8.36626 2.04706 7.98072 2.89412 7.94217 3.81176C7.94217 3.91765 7.94217 4.02353 7.98072 4.12941C8.05783 4.12941 8.17349 4.16471 8.2506 4.16471C9.29157 4.09412 10.2554 3.6 10.9108 2.85882Z" fill="white"/>
</svg>
