<svg width="16" height="16" viewBox="0 0 16 16" fill="none" xmlns="http://www.w3.org/2000/svg">
<path d="M10.6667 11.5002C10.6667 12.9729 9.47276 14.1668 8 14.1668C6.52724 14.1668 5.33333 12.9729 5.33333 11.5002M12.331 5.93948L12.447 8.23523C12.4613 8.51968 12.5363 8.79778 12.6668 9.05092L13.4254 10.5222C13.4744 10.6172 13.5 10.7226 13.5 10.8295C13.5 11.1999 13.1998 11.5002 12.8294 11.5002H3.17062C2.80025 11.5002 2.5 11.1999 2.5 10.8295C2.5 10.7226 2.52557 10.6172 2.57457 10.5222L3.3332 9.05092C3.46373 8.79778 3.53868 8.51968 3.55305 8.23523L3.66901 5.93948C3.7844 3.63937 5.68924 1.8335 8 1.8335C10.3108 1.8335 12.2156 3.63937 12.331 5.93948Z" stroke="#777777" stroke-width="1.5" stroke-linecap="round" stroke-linejoin="round"/>
</svg>
