<svg width="16" height="16" viewBox="0 0 16 16" fill="none" xmlns="http://www.w3.org/2000/svg">
<g clip-path="url(#clip0_2946_84766)">
<path d="M8 -1.33203V8.0013" stroke="#FF8D28" stroke-width="1.33333" stroke-linecap="round" stroke-linejoin="round"/>
<path d="M1.66667 12C1.48986 12 1.32029 11.9298 1.19526 11.8047C1.07024 11.6797 1 11.5101 1 11.3333V2.66667C1 2.48986 1.07024 2.32029 1.19526 2.19526C1.32029 2.07024 1.48986 2 1.66667 2H5C5.70724 2 6.38552 2.28095 6.88562 2.78105C7.38571 3.28115 7.66667 3.95942 7.66667 4.66667C7.66667 3.95942 7.94762 3.28115 8.44771 2.78105C8.94781 2.28095 9.62609 2 10.3333 2H13.6667C13.8435 2 14.013 2.07024 14.1381 2.19526C14.2631 2.32029 14.3333 2.48986 14.3333 2.66667V11.3333C14.3333 11.5101 14.2631 11.6797 14.1381 11.8047C14.013 11.9298 13.8435 12 13.6667 12H9.66667C9.13623 12 8.62753 12.2107 8.25245 12.5858C7.87738 12.9609 7.66667 13.4696 7.66667 14C7.66667 13.4696 7.45595 12.9609 7.08088 12.5858C6.70581 12.2107 6.1971 12 5.66667 12H1.66667Z" stroke="#FF8D28" stroke-width="1.33333" stroke-linecap="round" stroke-linejoin="round"/>
</g>
<defs>
<clipPath id="clip0_2946_84766">
<rect width="16" height="16" fill="white"/>
</clipPath>
</defs>
</svg>
