<svg width="24" height="24" viewBox="0 0 24 24" fill="none" xmlns="http://www.w3.org/2000/svg">
<path d="M16.47 20.1929L15.8888 21.0066H15.8888L16.47 20.1929ZM12.93 17.6643L13.5112 16.8505H13.5112L12.93 17.6643ZM11.07 17.6643L10.4888 16.8505V16.8505L11.07 17.6643ZM7.52998 20.1929L6.94874 19.3791H6.94874L7.52998 20.1929ZM12.2456 17.2595L12.4911 16.2901L12.4911 16.2901L12.2456 17.2595ZM11.7544 17.2595L11.5089 16.2901L11.5089 16.2901L11.7544 17.2595ZM5.20836 20.6678L6 20.0568L6 20.0568L5.20836 20.6678ZM5.96294 21.0561L5.92589 22.0554H5.92589L5.96294 21.0561ZM18.7916 20.6678L18 20.0568L18 20.0568L18.7916 20.6678ZM18.0371 21.0561L18.0741 22.0554H18.0741L18.0371 21.0561ZM18.782 4.09202L17.891 4.54601V4.54601L18.782 4.09202ZM17.908 3.21799L17.454 4.10899L17.454 4.10899L17.908 3.21799ZM5.21799 4.09202L4.32698 3.63803L4.32698 3.63803L5.21799 4.09202ZM6.09202 3.21799L5.63803 2.32698L5.63803 2.32698L6.09202 3.21799ZM10.2071 9.54289C9.81658 9.15237 9.18342 9.15237 8.79289 9.54289C8.40237 9.93342 8.40237 10.5666 8.79289 10.9571L9.5 10.25L10.2071 9.54289ZM11 11.75L10.2929 12.4571C10.6834 12.8476 11.3166 12.8476 11.7071 12.4571L11 11.75ZM15.2071 8.95711C15.5976 8.56658 15.5976 7.93342 15.2071 7.54289C14.8166 7.15237 14.1834 7.15237 13.7929 7.54289L14.5 8.25L15.2071 8.95711ZM19 6.2H18V18.8909H19H20V6.2H19ZM5 18.8909H6V6.2H5H4V18.8909H5ZM8.2 3V4H15.8V3V2H8.2V3ZM16.47 20.1929L17.0513 19.3791L13.5112 16.8505L12.93 17.6643L12.3487 18.478L15.8888 21.0066L16.47 20.1929ZM11.07 17.6643L10.4888 16.8505L6.94874 19.3791L7.52998 20.1929L8.11122 21.0066L11.6513 18.478L11.07 17.6643ZM12.93 17.6643L13.5112 16.8505C13.2454 16.6606 12.9003 16.3938 12.4911 16.2901L12.2456 17.2595L12 18.2289C11.956 18.2178 11.9466 18.2043 12.0065 18.2412C12.0771 18.2846 12.1705 18.3507 12.3487 18.478L12.93 17.6643ZM11.07 17.6643L11.6513 18.478C11.8295 18.3507 11.9229 18.2846 11.9935 18.2412C12.0534 18.2043 12.044 18.2178 12 18.2289L11.7544 17.2595L11.5089 16.2901C11.0997 16.3938 10.7546 16.6606 10.4888 16.8505L11.07 17.6643ZM12.2456 17.2595L12.4911 16.2901C12.1688 16.2085 11.8312 16.2085 11.5089 16.2901L11.7544 17.2595L12 18.2289H12L12.2456 17.2595ZM5 18.8909H4C4 19.3733 3.999 19.8046 4.0302 20.1459C4.06022 20.4742 4.1313 20.909 4.41673 21.2788L5.20836 20.6678L6 20.0568C6.07706 20.1567 6.04397 20.2053 6.02189 19.9638C6.001 19.7353 6 19.4131 6 18.8909H5ZM7.52998 20.1929L6.94874 19.3791C6.52379 19.6827 6.26104 19.8691 6.06296 19.9849C5.85365 20.1073 5.87396 20.0521 6 20.0568L5.96294 21.0561L5.92589 22.0554C6.39272 22.0727 6.7878 21.8779 7.07244 21.7115C7.3683 21.5385 7.71867 21.287 8.11122 21.0066L7.52998 20.1929ZM5.20836 20.6678L4.41673 21.2788C4.77954 21.7489 5.33249 22.0334 5.92589 22.0554L5.96294 21.0561L6 20.0568L6 20.0568L5.20836 20.6678ZM19 18.8909H18C18 19.4131 17.999 19.7353 17.9781 19.9638C17.956 20.2053 17.9229 20.1567 18 20.0568L18.7916 20.6678L19.5833 21.2788C19.8687 20.909 19.9398 20.4742 19.9698 20.1459C20.001 19.8046 20 19.3733 20 18.8909H19ZM16.47 20.1929L15.8888 21.0066C16.2813 21.287 16.6317 21.5385 16.9276 21.7115C17.2122 21.8779 17.6073 22.0727 18.0741 22.0554L18.0371 21.0561L18 20.0568C18.126 20.0521 18.1463 20.1073 17.937 19.9849C17.739 19.8691 17.4762 19.6827 17.0513 19.3791L16.47 20.1929ZM18.7916 20.6678L18 20.0568L18 20.0568L18.0371 21.0561L18.0741 22.0554C18.6675 22.0334 19.2205 21.7489 19.5833 21.2788L18.7916 20.6678ZM19 6.2H20C20 5.65645 20.0008 5.18864 19.9694 4.80497C19.9371 4.40963 19.8658 4.01641 19.673 3.63803L18.782 4.09202L17.891 4.54601C17.9162 4.59545 17.9539 4.69617 17.9761 4.96784C17.9992 5.25117 18 5.62345 18 6.2H19ZM15.8 3V4C16.3766 4 16.7488 4.00078 17.0322 4.02393C17.3038 4.04612 17.4045 4.0838 17.454 4.10899L17.908 3.21799L18.362 2.32698C17.9836 2.13419 17.5904 2.06287 17.195 2.03057C16.8114 1.99922 16.3436 2 15.8 2V3ZM18.782 4.09202L19.673 3.63803C19.3854 3.07354 18.9265 2.6146 18.362 2.32698L17.908 3.21799L17.454 4.10899C17.6422 4.20487 17.7951 4.35785 17.891 4.54601L18.782 4.09202ZM5 6.2H6C6 5.62345 6.00078 5.25117 6.02393 4.96784C6.04612 4.69617 6.0838 4.59545 6.10899 4.54601L5.21799 4.09202L4.32698 3.63803C4.13419 4.01641 4.06287 4.40963 4.03057 4.80497C3.99922 5.18864 4 5.65645 4 6.2H5ZM8.2 3V2C7.65645 2 7.18864 1.99922 6.80497 2.03057C6.40963 2.06287 6.01641 2.13419 5.63803 2.32698L6.09202 3.21799L6.54601 4.10899C6.59545 4.0838 6.69617 4.04612 6.96784 4.02393C7.25117 4.00078 7.62345 4 8.2 4V3ZM5.21799 4.09202L6.10899 4.54601C6.20487 4.35785 6.35785 4.20487 6.54601 4.10899L6.09202 3.21799L5.63803 2.32698C5.07354 2.6146 4.6146 3.07354 4.32698 3.63803L5.21799 4.09202ZM9.5 10.25L8.79289 10.9571L10.2929 12.4571L11 11.75L11.7071 11.0429L10.2071 9.54289L9.5 10.25ZM11 11.75L11.7071 12.4571L15.2071 8.95711L14.5 8.25L13.7929 7.54289L10.2929 11.0429L11 11.75Z" fill="#606060"/>
</svg>
