<svg width="16" height="16" viewBox="0 0 16 16" fill="none" xmlns="http://www.w3.org/2000/svg">
<path fill-rule="evenodd" clip-rule="evenodd" d="M4.19526 4.86177C4.45561 4.60142 4.87772 4.60142 5.13807 4.86177L7.45118 7.17488C7.9068 7.63049 7.9068 8.36918 7.45118 8.82479L5.13807 11.1379C4.87772 11.3983 4.45561 11.3983 4.19526 11.1379C3.93491 10.8776 3.93491 10.4554 4.19526 10.1951L6.39052 7.99984L4.19526 5.80458C3.93491 5.54423 3.93491 5.12212 4.19526 4.86177ZM8.86193 4.86177C9.12228 4.60142 9.54439 4.60142 9.80474 4.86177L12.1179 7.17488C12.5735 7.63049 12.5735 8.36918 12.1179 8.82479L9.80474 11.1379C9.54439 11.3983 9.12228 11.3983 8.86193 11.1379C8.60158 10.8776 8.60158 10.4554 8.86193 10.1951L11.0572 7.99984L8.86193 5.80457C8.60158 5.54423 8.60158 5.12212 8.86193 4.86177Z" fill="white"/>
</svg>
