<svg width="38" height="40" viewBox="0 0 38 40" fill="none" xmlns="http://www.w3.org/2000/svg">
<path fill-rule="evenodd" clip-rule="evenodd" d="M7.57031 0H22L34 12V34.7926C34 37.6712 31.5088 40 28.4403 40H7.57031C4.49114 40 2 37.6712 2 34.7926V5.20738C1.99995 2.32883 4.49108 0 7.57031 0Z" fill="#155EEF"/>
<path fill-rule="evenodd" clip-rule="evenodd" d="M7.57031 0H22L34 12V34.7926C34 37.6712 31.5088 40 28.4403 40H7.57031C4.49114 40 2 37.6712 2 34.7926V5.20738C1.99995 2.32883 4.49108 0 7.57031 0Z" fill="url(#paint0_linear_2946_84782)"/>
<path d="M22 8.16406V0L34 12H26.0171C22.4248 12 22 9.47141 22 8.16406Z" fill="white" fill-opacity="0.3"/>
<path d="M21.7122 25.651L24.2969 27.4704C24.373 27.5042 24.4564 27.5185 24.5394 27.5119C24.6225 27.5054 24.7026 27.4781 24.7724 27.4327C24.8423 27.3874 24.8997 27.3252 24.9394 27.252C24.9792 27.1788 25 27.0968 25 27.0135V20.9897C25 20.9064 24.9792 20.8244 24.9394 20.7512C24.8997 20.678 24.8423 20.6159 24.7724 20.5705C24.7026 20.5251 24.6225 20.4979 24.5394 20.4913C24.4564 20.4847 24.373 20.499 24.2969 20.5329L21.7122 22.3522C21.6466 22.3984 21.5932 22.4596 21.5562 22.5307C21.5193 22.6019 21.5 22.6808 21.5 22.761V25.2422C21.5 25.3224 21.5193 25.4014 21.5562 25.4725C21.5932 25.5436 21.6466 25.6049 21.7122 25.651Z" stroke="white" stroke-width="1.5" stroke-linecap="round" stroke-linejoin="round"/>
<path d="M18.375 28H12.625C12.1944 27.9988 11.7818 27.8272 11.4773 27.5227C11.1728 27.2182 11.0012 26.8056 11 26.375V21.625C11.0012 21.1944 11.1728 20.7818 11.4773 20.4773C11.7818 20.1728 12.1944 20.0012 12.625 20H18.39C18.8166 20.0013 19.2253 20.1714 19.527 20.473C19.8286 20.7747 19.9987 21.1834 20 21.61V26.375C19.9988 26.8056 19.8272 27.2182 19.5227 27.5227C19.2182 27.8272 18.8056 27.9988 18.375 28Z" fill="white" stroke="white" stroke-width="1.5" stroke-miterlimit="10"/>
<defs>
<linearGradient id="paint0_linear_2946_84782" x1="2" y1="0" x2="41.0244" y2="31.2195" gradientUnits="userSpaceOnUse">
<stop stop-color="#FF96F9"/>
<stop offset="1" stop-color="#C32BAC"/>
</linearGradient>
</defs>
</svg>
