<svg width="17" height="17" viewBox="0 0 17 17" fill="none" xmlns="http://www.w3.org/2000/svg">
<g filter="url(#filter0_f_5146_46304)">
<path d="M-0.125 8.55664C-0.115985 9.91062 0.269825 11.3076 0.853813 12.4353V12.4431C1.27577 13.2621 1.85247 13.909 2.50932 14.55L6.47651 13.1024C5.72594 12.7212 5.61141 12.4875 5.07338 12.0612C4.52355 11.5068 4.11376 10.8703 3.85856 10.124H3.84828L3.85856 10.1163C3.69067 9.62344 3.67411 9.10031 3.66791 8.55664H-0.125Z" fill="url(#paint0_radial_5146_46304)"/>
</g>
<g filter="url(#filter1_f_5146_46304)">
<path d="M8.68055 -0.0620117C8.28844 1.31555 8.43836 2.65458 8.68055 3.4337C9.13336 3.43403 9.56956 3.48801 9.98316 3.59554C10.9314 3.84205 11.602 4.32756 12.013 4.71159L14.5563 2.22101C13.0496 0.839577 11.2364 -0.0598352 8.68055 -0.0620117Z" fill="url(#paint1_radial_5146_46304)"/>
</g>
<g filter="url(#filter2_f_5146_46304)">
<path d="M8.67222 -0.0727539C6.74887 -0.0727955 4.97316 0.526465 3.51802 1.53924C2.97773 1.91528 2.48191 2.34967 2.04041 2.83272C1.92476 3.91779 2.90622 5.25145 4.84984 5.24041C5.79287 4.14345 7.18759 3.43372 8.73992 3.43372C8.74133 3.43372 8.74271 3.43384 8.74413 3.43385L8.68073 -0.0725057C8.67786 -0.0725075 8.67509 -0.0727539 8.67222 -0.0727539Z" fill="url(#paint2_radial_5146_46304)"/>
</g>
<g filter="url(#filter3_f_5146_46304)">
<path d="M15.0204 8.94987L13.3037 10.1292C13.2283 10.5917 13.0591 11.0467 12.8114 11.4616C12.5275 11.9369 12.1767 12.2988 11.8171 12.5743C10.742 13.3981 9.4894 13.5677 8.61738 13.5684C7.71607 15.1035 7.55805 15.8725 8.68077 17.1114C10.07 17.1104 11.3017 16.8596 12.388 16.39C13.1733 16.0505 13.8691 15.6077 14.499 15.0387C15.3314 14.2868 15.9834 13.3567 16.4283 12.2867C16.8733 11.2167 17.1112 10.0067 17.1112 8.69482L15.0204 8.94987Z" fill="url(#paint3_radial_5146_46304)"/>
</g>
<g filter="url(#filter4_f_5146_46304)">
<path d="M8.55273 6.79883V10.3151H16.8123C16.8849 9.83357 17.1252 9.2104 17.1252 8.69452C17.1252 8.09165 17.0647 7.35528 16.962 6.79883H8.55273Z" fill="#3086FF"/>
</g>
<g filter="url(#filter5_f_5146_46304)">
<path d="M2.08009 2.7085C1.57039 3.26618 1.13495 3.89038 0.789695 4.56545C0.197372 5.71997 -0.126953 7.12354 -0.126953 8.49916C-0.126953 8.51855 -0.125349 8.53751 -0.125219 8.55687C0.137102 9.05983 3.49828 8.96352 3.6677 8.55687C3.66748 8.53789 3.66535 8.51939 3.66535 8.50037C3.66535 7.93615 3.76067 7.52029 3.93441 7.01019C4.14875 6.381 4.48436 5.8016 4.91351 5.30239C5.01079 5.17819 5.27028 4.91119 5.34598 4.75104C5.37482 4.69003 5.29363 4.65579 5.28909 4.63432C5.28401 4.6103 5.17515 4.62962 5.15076 4.61173C5.07332 4.55493 4.91998 4.52527 4.82686 4.4989C4.62784 4.44255 4.298 4.31828 4.1148 4.18945C3.53571 3.78225 2.63198 3.29584 2.08009 2.7085Z" fill="url(#paint4_radial_5146_46304)"/>
</g>
<g filter="url(#filter6_f_5146_46304)">
<path d="M4.12706 4.63686C5.46992 5.4503 5.8561 4.22627 6.74892 3.84324L5.19584 0.622559C4.62453 0.862679 4.08475 1.16101 3.58392 1.50958C2.83598 2.03014 2.17549 2.66538 1.62988 3.38829L4.12706 4.63686Z" fill="url(#paint5_radial_5146_46304)"/>
</g>
<g filter="url(#filter7_f_5146_46304)">
<path d="M4.67459 12.8538C2.87197 13.5046 2.58976 13.528 2.42383 14.6451C2.74091 14.9545 3.0816 15.2408 3.44363 15.5003C4.41507 16.1966 6.28369 17.124 8.6735 17.124C8.6763 17.124 8.67899 17.1238 8.68179 17.1238V13.506C8.67998 13.506 8.67791 13.5061 8.6761 13.5061C7.7812 13.5061 7.06609 13.2711 6.33287 12.8623C6.15209 12.7616 5.82411 13.0322 5.65739 12.9112C5.42743 12.7443 4.87403 13.055 4.67459 12.8538Z" fill="url(#paint6_radial_5146_46304)"/>
</g>
<g opacity="0.5" filter="url(#filter8_f_5146_46304)">
<path d="M7.625 13.3926V17.0616C7.95938 17.1008 8.30736 17.1246 8.67241 17.1246C9.03836 17.1246 9.39239 17.1058 9.73641 17.0712V13.4173C9.35089 13.4832 8.98779 13.5067 8.67501 13.5067C8.31477 13.5067 7.96445 13.4647 7.625 13.3926Z" fill="url(#paint7_linear_5146_46304)"/>
</g>
<defs>
<filter id="filter0_f_5146_46304" x="-0.589259" y="8.09238" width="7.53008" height="6.92168" filterUnits="userSpaceOnUse" color-interpolation-filters="sRGB">
<feFlood flood-opacity="0" result="BackgroundImageFix"/>
<feBlend mode="normal" in="SourceGraphic" in2="BackgroundImageFix" result="shape"/>
<feGaussianBlur stdDeviation="0.23213" result="effect1_foregroundBlur_5146_46304"/>
</filter>
<filter id="filter1_f_5146_46304" x="7.97519" y="-0.526271" width="7.04571" height="5.70196" filterUnits="userSpaceOnUse" color-interpolation-filters="sRGB">
<feFlood flood-opacity="0" result="BackgroundImageFix"/>
<feBlend mode="normal" in="SourceGraphic" in2="BackgroundImageFix" result="shape"/>
<feGaussianBlur stdDeviation="0.23213" result="effect1_foregroundBlur_5146_46304"/>
</filter>
<filter id="filter2_f_5146_46304" x="1.56699" y="-0.537013" width="7.64141" height="6.242" filterUnits="userSpaceOnUse" color-interpolation-filters="sRGB">
<feFlood flood-opacity="0" result="BackgroundImageFix"/>
<feBlend mode="normal" in="SourceGraphic" in2="BackgroundImageFix" result="shape"/>
<feGaussianBlur stdDeviation="0.23213" result="effect1_foregroundBlur_5146_46304"/>
</filter>
<filter id="filter3_f_5146_46304" x="7.42539" y="8.23056" width="10.1502" height="9.34502" filterUnits="userSpaceOnUse" color-interpolation-filters="sRGB">
<feFlood flood-opacity="0" result="BackgroundImageFix"/>
<feBlend mode="normal" in="SourceGraphic" in2="BackgroundImageFix" result="shape"/>
<feGaussianBlur stdDeviation="0.23213" result="effect1_foregroundBlur_5146_46304"/>
</filter>
<filter id="filter4_f_5146_46304" x="8.08848" y="6.33457" width="9.50078" height="4.44463" filterUnits="userSpaceOnUse" color-interpolation-filters="sRGB">
<feFlood flood-opacity="0" result="BackgroundImageFix"/>
<feBlend mode="normal" in="SourceGraphic" in2="BackgroundImageFix" result="shape"/>
<feGaussianBlur stdDeviation="0.23213" result="effect1_foregroundBlur_5146_46304"/>
</filter>
<filter id="filter5_f_5146_46304" x="-0.591212" y="2.24424" width="6.40801" height="7.11895" filterUnits="userSpaceOnUse" color-interpolation-filters="sRGB">
<feFlood flood-opacity="0" result="BackgroundImageFix"/>
<feBlend mode="normal" in="SourceGraphic" in2="BackgroundImageFix" result="shape"/>
<feGaussianBlur stdDeviation="0.23213" result="effect1_foregroundBlur_5146_46304"/>
</filter>
<filter id="filter6_f_5146_46304" x="-1.63405" y="-2.64137" width="11.647" height="10.8155" filterUnits="userSpaceOnUse" color-interpolation-filters="sRGB">
<feFlood flood-opacity="0" result="BackgroundImageFix"/>
<feBlend mode="normal" in="SourceGraphic" in2="BackgroundImageFix" result="shape"/>
<feGaussianBlur stdDeviation="1.63197" result="effect1_foregroundBlur_5146_46304"/>
</filter>
<filter id="filter7_f_5146_46304" x="1.95957" y="12.3751" width="7.18633" height="5.21319" filterUnits="userSpaceOnUse" color-interpolation-filters="sRGB">
<feFlood flood-opacity="0" result="BackgroundImageFix"/>
<feBlend mode="normal" in="SourceGraphic" in2="BackgroundImageFix" result="shape"/>
<feGaussianBlur stdDeviation="0.23213" result="effect1_foregroundBlur_5146_46304"/>
</filter>
<filter id="filter8_f_5146_46304" x="7.16074" y="12.9283" width="3.03985" height="4.66045" filterUnits="userSpaceOnUse" color-interpolation-filters="sRGB">
<feFlood flood-opacity="0" result="BackgroundImageFix"/>
<feBlend mode="normal" in="SourceGraphic" in2="BackgroundImageFix" result="shape"/>
<feGaussianBlur stdDeviation="0.23213" result="effect1_foregroundBlur_5146_46304"/>
</filter>
<radialGradient id="paint0_radial_5146_46304" cx="0" cy="0" r="1" gradientTransform="matrix(-0.353261 -8.46594 12.7012 -0.508033 6.3971 14.4224)" gradientUnits="userSpaceOnUse">
<stop offset="0.141612" stop-color="#1ABD4D"/>
<stop offset="0.247515" stop-color="#6EC30D"/>
<stop offset="0.311547" stop-color="#8AC502"/>
<stop offset="0.366013" stop-color="#A2C600"/>
<stop offset="0.445673" stop-color="#C8C903"/>
<stop offset="0.540305" stop-color="#EBCB03"/>
<stop offset="0.615636" stop-color="#F7CD07"/>
<stop offset="0.699345" stop-color="#FDCD04"/>
<stop offset="0.771242" stop-color="#FDCE05"/>
<stop offset="0.860566" stop-color="#FFCE0A"/>
</radialGradient>
<radialGradient id="paint1_radial_5146_46304" cx="0" cy="0" r="1" gradientTransform="matrix(5.99935 -1.44186e-05 -8.43233e-06 7.58573 14.3183 4.53139)" gradientUnits="userSpaceOnUse">
<stop offset="0.408458" stop-color="#FB4E5A"/>
<stop offset="1" stop-color="#FF4540"/>
</radialGradient>
<radialGradient id="paint2_radial_5146_46304" cx="0" cy="0" r="1" gradientTransform="matrix(-8.40552 4.55807 6.31745 11.1676 11.0422 -1.17081)" gradientUnits="userSpaceOnUse">
<stop offset="0.231273" stop-color="#FF4541"/>
<stop offset="0.311547" stop-color="#FF4540"/>
<stop offset="0.457516" stop-color="#FF4640"/>
<stop offset="0.540305" stop-color="#FF473F"/>
<stop offset="0.699346" stop-color="#FF5138"/>
<stop offset="0.771242" stop-color="#FF5B33"/>
<stop offset="0.860566" stop-color="#FF6C29"/>
<stop offset="1" stop-color="#FF8C18"/>
</radialGradient>
<radialGradient id="paint3_radial_5146_46304" cx="0" cy="0" r="1" gradientTransform="matrix(-15.2436 -19.4825 -7.34516 5.50908 8.80574 16.0111)" gradientUnits="userSpaceOnUse">
<stop offset="0.131546" stop-color="#0CBA65"/>
<stop offset="0.209784" stop-color="#0BB86D"/>
<stop offset="0.297297" stop-color="#09B479"/>
<stop offset="0.396257" stop-color="#08AD93"/>
<stop offset="0.477124" stop-color="#0AA6A9"/>
<stop offset="0.568425" stop-color="#0D9CC6"/>
<stop offset="0.667385" stop-color="#1893DD"/>
<stop offset="0.768727" stop-color="#258BF1"/>
<stop offset="0.858506" stop-color="#3086FF"/>
</radialGradient>
<radialGradient id="paint4_radial_5146_46304" cx="0" cy="0" r="1" gradientTransform="matrix(-1.07876 9.10362 12.8563 1.46036 7.93607 1.53276)" gradientUnits="userSpaceOnUse">
<stop offset="0.366013" stop-color="#FF4E3A"/>
<stop offset="0.457516" stop-color="#FF8A1B"/>
<stop offset="0.540305" stop-color="#FFA312"/>
<stop offset="0.615636" stop-color="#FFB60C"/>
<stop offset="0.771242" stop-color="#FFCD0A"/>
<stop offset="0.860566" stop-color="#FECF0A"/>
<stop offset="0.915033" stop-color="#FECF08"/>
<stop offset="1" stop-color="#FDCD01"/>
</radialGradient>
<radialGradient id="paint5_radial_5146_46304" cx="0" cy="0" r="1" gradientTransform="matrix(-3.11817 3.37647 -9.72698 -8.61092 6.41887 1.43846)" gradientUnits="userSpaceOnUse">
<stop offset="0.315904" stop-color="#FF4C3C"/>
<stop offset="0.603818" stop-color="#FF692C"/>
<stop offset="0.726837" stop-color="#FF7825"/>
<stop offset="0.884534" stop-color="#FF8D1B"/>
<stop offset="1" stop-color="#FF9F13"/>
</radialGradient>
<radialGradient id="paint6_radial_5146_46304" cx="0" cy="0" r="1" gradientTransform="matrix(-8.40552 -4.55807 6.31745 -11.1676 11.0433 18.1704)" gradientUnits="userSpaceOnUse">
<stop offset="0.231273" stop-color="#0FBC5F"/>
<stop offset="0.311547" stop-color="#0FBC5F"/>
<stop offset="0.366013" stop-color="#0FBC5E"/>
<stop offset="0.457516" stop-color="#0FBC5D"/>
<stop offset="0.540305" stop-color="#12BC58"/>
<stop offset="0.699346" stop-color="#28BF3C"/>
<stop offset="0.771242" stop-color="#38C02B"/>
<stop offset="0.860566" stop-color="#52C218"/>
<stop offset="0.915033" stop-color="#67C30F"/>
<stop offset="1" stop-color="#86C504"/>
</radialGradient>
<linearGradient id="paint7_linear_5146_46304" x1="7.625" y1="15.2586" x2="9.73641" y2="15.2586" gradientUnits="userSpaceOnUse">
<stop stop-color="#0FBC5C"/>
<stop offset="1" stop-color="#0CBA65"/>
</linearGradient>
</defs>
</svg>
