<svg width="24" height="24" viewBox="0 0 24 24" fill="none" xmlns="http://www.w3.org/2000/svg">
<path fill-rule="evenodd" clip-rule="evenodd" d="M13.6848 3.50508C12.6677 2.81471 11.3323 2.81471 10.3152 3.50508L4.31519 7.57759C3.49256 8.13595 3 9.06559 3 10.0598V18.0001C3 19.6581 4.34588 21.0001 6.00165 21.0001H7.02469C7.27555 18.4735 9.40733 16.5001 12 16.5001C14.5927 16.5001 16.7245 18.4735 16.9753 21.0001H17.9983C19.6541 21.0001 21 19.6581 21 18.0001V10.0598C21 9.06559 20.5074 8.13595 19.6848 7.57759L13.6848 3.50508ZM12 9.75012C10.6193 9.75012 9.5 10.8694 9.5 12.2501C9.5 13.6308 10.6193 14.7501 12 14.7501C13.3807 14.7501 14.5 13.6308 14.5 12.2501C14.5 10.8694 13.3807 9.75012 12 9.75012Z" fill="#3B883E"/>
</svg>
