<svg width="96" height="100" viewBox="0 0 96 100" fill="none" xmlns="http://www.w3.org/2000/svg">
<path fill-rule="evenodd" clip-rule="evenodd" d="M47.6727 0.0534441C46.5037 0.472667 44.6428 2.6352 43.9501 3.65363C39.1737 10.6767 46.6878 18.1737 48.4444 17.5342C50.7945 16.6788 58.1385 8.17962 49.9745 1.23455C49.4615 0.798129 48.5106 -0.247051 47.6726 0.0534441H47.6727Z" fill="#3B883E"/>
<path fill-rule="evenodd" clip-rule="evenodd" d="M53.7204 38.4457C54.3172 34.0119 51.1263 30.4763 48.942 28.8606C47.8748 28.0712 47.2938 28.6594 46.4899 29.365C45.8705 29.9089 45.2892 30.4474 44.7302 31.1752C40.7217 36.393 42.1567 41.9499 47.2007 45.6234C48.3545 46.4637 48.7362 45.7287 49.5748 45.099L51.3939 43.3506C52.4662 41.98 53.4066 40.7772 53.7204 38.4457H53.7204Z" fill="#3B883E"/>
<path fill-rule="evenodd" clip-rule="evenodd" d="M53.6349 23.1375C53.6584 24.0533 56.4112 26.2997 57.1128 26.7848C65.2452 32.4089 71.0739 24.0635 71.0014 22.9953C70.9287 21.9237 68.3825 19.7847 67.611 19.2305C60.4954 14.1196 53.6068 22.0478 53.6349 23.1375Z" fill="#3B883E"/>
<path fill-rule="evenodd" clip-rule="evenodd" d="M25.0011 23.1389C25.1014 23.9899 27.6952 26.3814 28.3401 26.9072C34.8256 32.1955 42.4415 24.5428 42.2985 23.0208C42.2023 21.9965 39.6539 19.9726 38.8096 19.3889C30.7552 13.8213 24.9087 22.3553 25.0011 23.139V23.1389Z" fill="#3B883E"/>
<path fill-rule="evenodd" clip-rule="evenodd" d="M40.8722 38.3604C40.6407 36.0658 40.7743 34.2484 41.4581 32.2015C42.0285 30.4942 43.7815 28.0525 43.6465 27.6263C43.3103 26.5656 41.6792 28.4283 39.09 29.3814C37.2483 30.0593 35.396 30.2913 33.1693 30.3067C30.8512 33.1103 30.9046 38.4446 31.7 39.2844C32.3747 39.9969 35.5537 39.9072 36.6768 39.7708C38.3052 39.5731 39.6753 38.9753 40.8722 38.3604Z" fill="#3B883E"/>
<path fill-rule="evenodd" clip-rule="evenodd" d="M32.9961 15.8539C36.6951 16.3186 37.6769 15.9737 41.2285 17.8655C41.8304 18.1861 42.9668 19.1196 43.5748 18.88C44.0793 18.423 43.2237 17.6688 42.6268 16.6218C41.6732 14.9492 41.0924 13.2956 40.8157 11.2872C40.6416 10.0238 40.8627 9.06842 40.8211 8.01932C38.1675 6.32808 32.9749 5.96603 31.7258 7.00664C31.0021 7.60959 31.2228 10.7986 31.4048 11.7895C31.7884 13.8786 32.2283 14.292 32.9961 15.8539Z" fill="#3B883E"/>
<path fill-rule="evenodd" clip-rule="evenodd" d="M59.4436 39.7539C60.5356 39.9061 63.7555 40.0471 64.3948 39.2743C65.2023 38.298 64.9368 32.5964 62.9142 30.3296C60.3726 30.1816 59.0639 30.1654 56.871 29.3827C54.4042 28.5023 52.6518 26.6091 52.3421 27.6223C52.2229 28.0127 53.3074 29.4998 53.5541 29.8882C54.9272 32.049 55.7729 35.7751 55.2388 38.3268C56.5379 38.8661 57.6688 39.5066 59.4437 39.7539H59.4436Z" fill="#3B883E"/>
<path fill-rule="evenodd" clip-rule="evenodd" d="M55.276 8.13042C55.381 12.0204 54.987 14.3896 52.7638 17.6864C52.7088 17.768 52.3969 18.2063 52.3931 18.2153C52.0973 18.9214 52.6092 19.2957 53.5745 18.6341C56.6948 16.4952 59.0283 15.9687 63.0222 15.9074C63.6486 14.5459 64.2461 14.1454 64.6129 11.9944C64.7935 10.9354 65.1125 7.62076 64.2856 6.9597C63.2135 6.10257 57.4611 6.18939 55.2761 8.13054L55.276 8.13042Z" fill="#3B883E"/>
<path fill-rule="evenodd" clip-rule="evenodd" d="M50.7408 23.5838C51.4074 20.0847 45.9052 18.875 45.2113 22.6039C44.5273 26.2797 50.005 27.4458 50.7408 23.5838Z" fill="#3B883E"/>
<g clip-path="url(#clip0_5803_52335)">
<path d="M11.6899 89.396C9.52992 89.396 7.65792 89.024 6.07392 88.28C4.51392 87.512 3.31392 86.432 2.47392 85.04C1.63392 83.648 1.21392 82.004 1.21392 80.108C1.21392 78.284 1.60992 76.688 2.40192 75.32C3.21792 73.928 4.32192 72.848 5.71392 72.08C7.12992 71.288 8.73792 70.892 10.5379 70.892C11.8579 70.892 13.0579 71.108 14.1379 71.54C15.2179 71.948 16.1419 72.56 16.9099 73.376C17.6779 74.168 18.2539 75.128 18.6379 76.256C19.0459 77.384 19.2499 78.644 19.2499 80.036C19.2499 80.516 19.1179 80.876 18.8539 81.116C18.5899 81.332 18.1699 81.44 17.5939 81.44H6.57792V78.416H14.5699L13.9939 78.884C13.9939 77.996 13.8739 77.276 13.6339 76.724C13.3939 76.172 13.0339 75.752 12.5539 75.464C12.0979 75.176 11.5219 75.032 10.8259 75.032C10.0819 75.032 9.43392 75.212 8.88192 75.572C8.35392 75.908 7.94592 76.412 7.65792 77.084C7.36992 77.756 7.22592 78.596 7.22592 79.604V79.928C7.22592 81.632 7.59792 82.856 8.34192 83.6C9.10992 84.32 10.2859 84.68 11.8699 84.68C12.3979 84.68 12.9979 84.62 13.6699 84.5C14.3659 84.356 15.0259 84.164 15.6499 83.924C16.2739 83.684 16.8139 83.648 17.2699 83.816C17.7259 83.96 18.0739 84.224 18.3139 84.608C18.5779 84.968 18.7219 85.388 18.7459 85.868C18.7699 86.324 18.6619 86.78 18.4219 87.236C18.1819 87.668 17.7859 88.004 17.2339 88.244C16.3939 88.628 15.4939 88.916 14.5339 89.108C13.5979 89.3 12.6499 89.396 11.6899 89.396ZM25.1787 89.324C24.1707 89.324 23.3907 89.048 22.8387 88.496C22.2867 87.944 22.0107 87.14 22.0107 86.084V66.536C22.0107 65.48 22.2867 64.676 22.8387 64.124C23.3907 63.572 24.1707 63.296 25.1787 63.296C26.2107 63.296 27.0027 63.572 27.5547 64.124C28.1307 64.676 28.4187 65.48 28.4187 66.536V78.416H28.4907L32.8827 73.088C33.4827 72.368 34.0347 71.84 34.5387 71.504C35.0667 71.144 35.7747 70.964 36.6627 70.964C37.5507 70.964 38.2347 71.18 38.7147 71.612C39.1947 72.044 39.4467 72.584 39.4707 73.232C39.4947 73.88 39.2307 74.528 38.6787 75.176L33.9267 80.792V78.56L39.2547 85.256C39.7827 85.928 39.9987 86.588 39.9027 87.236C39.8067 87.86 39.4947 88.364 38.9667 88.748C38.4627 89.132 37.8147 89.324 37.0227 89.324C36.0627 89.324 35.2947 89.156 34.7187 88.82C34.1427 88.46 33.5667 87.908 32.9907 87.164L28.4907 81.62H28.4187V86.084C28.4187 88.244 27.3387 89.324 25.1787 89.324ZM49.6255 89.396C47.3215 89.396 45.6175 88.784 44.5135 87.56C43.4335 86.312 42.8935 84.44 42.8935 81.944V66.536C42.8935 65.48 43.1695 64.676 43.7215 64.124C44.2735 63.572 45.0535 63.296 46.0615 63.296C47.0935 63.296 47.8855 63.572 48.4375 64.124C49.0135 64.676 49.3015 65.48 49.3015 66.536V81.728C49.3015 82.616 49.4695 83.264 49.8055 83.672C50.1655 84.08 50.6215 84.284 51.1735 84.284C51.3415 84.284 51.5095 84.272 51.6775 84.248C51.8695 84.2 52.0735 84.164 52.2895 84.14C52.6975 84.14 52.9975 84.296 53.1895 84.608C53.4055 84.92 53.5135 85.556 53.5135 86.516C53.5135 87.356 53.3455 87.992 53.0095 88.424C52.6735 88.832 52.1575 89.096 51.4615 89.216C51.2695 89.24 50.9935 89.276 50.6335 89.324C50.2735 89.372 49.9375 89.396 49.6255 89.396ZM61.5651 89.396C60.1971 89.396 58.9851 89.144 57.9291 88.64C56.8971 88.136 56.0811 87.452 55.4811 86.588C54.9051 85.7 54.6171 84.692 54.6171 83.564C54.6171 82.268 54.9531 81.248 55.6251 80.504C56.2971 79.76 57.3771 79.232 58.8651 78.92C60.3531 78.584 62.3331 78.416 64.8051 78.416H66.7851V81.44H64.8051C63.8691 81.44 63.0891 81.512 62.4651 81.656C61.8651 81.776 61.4211 81.98 61.1331 82.268C60.8451 82.532 60.7011 82.88 60.7011 83.312C60.7011 83.864 60.8931 84.32 61.2771 84.68C61.6851 85.04 62.2611 85.22 63.0051 85.22C63.6051 85.22 64.1331 85.088 64.5891 84.824C65.0691 84.56 65.4531 84.2 65.7411 83.744C66.0291 83.264 66.1731 82.712 66.1731 82.088V77.912C66.1731 77.048 65.9451 76.436 65.4891 76.076C65.0571 75.716 64.3011 75.536 63.2211 75.536C62.6451 75.536 61.9971 75.608 61.2771 75.752C60.5571 75.872 59.7531 76.1 58.8651 76.436C58.2171 76.676 57.6651 76.712 57.2091 76.544C56.7531 76.376 56.3931 76.088 56.1291 75.68C55.8891 75.272 55.7691 74.828 55.7691 74.348C55.7931 73.868 55.9491 73.412 56.2371 72.98C56.5491 72.548 57.0171 72.212 57.6411 71.972C58.7931 71.54 59.8491 71.252 60.8091 71.108C61.7931 70.964 62.6931 70.892 63.5091 70.892C65.4771 70.892 67.0971 71.18 68.3691 71.756C69.6651 72.308 70.6251 73.172 71.2491 74.348C71.8971 75.5 72.2211 76.988 72.2211 78.812V86.084C72.2211 87.14 71.9691 87.944 71.4651 88.496C70.9611 89.048 70.2291 89.324 69.2691 89.324C68.2851 89.324 67.5291 89.048 67.0011 88.496C66.4971 87.944 66.2451 87.14 66.2451 86.084V85.148L66.4611 85.652C66.3411 86.42 66.0651 87.08 65.6331 87.632C65.2011 88.184 64.6371 88.616 63.9411 88.928C63.2451 89.24 62.4531 89.396 61.5651 89.396ZM79.038 89.324C78.03 89.324 77.25 89.048 76.698 88.496C76.146 87.944 75.87 87.14 75.87 86.084V74.168C75.87 73.136 76.134 72.344 76.662 71.792C77.214 71.24 77.994 70.964 79.002 70.964C80.01 70.964 80.778 71.24 81.306 71.792C81.834 72.344 82.098 73.136 82.098 74.168V75.86L81.702 74.384C82.278 73.256 83.094 72.392 84.15 71.792C85.23 71.192 86.454 70.892 87.822 70.892C89.238 70.892 90.402 71.168 91.314 71.72C92.226 72.248 92.91 73.088 93.366 74.24C93.822 75.368 94.05 76.796 94.05 78.524V86.084C94.05 87.14 93.774 87.944 93.222 88.496C92.67 89.048 91.878 89.324 90.846 89.324C89.814 89.324 89.022 89.048 88.47 88.496C87.918 87.944 87.642 87.14 87.642 86.084V78.776C87.642 77.696 87.45 76.928 87.066 76.472C86.706 76.016 86.166 75.788 85.446 75.788C84.486 75.788 83.718 76.1 83.142 76.724C82.566 77.324 82.278 78.14 82.278 79.172V86.084C82.278 88.244 81.198 89.324 79.038 89.324Z" fill="#3B883E"/>
</g>
<defs>
<clipPath id="clip0_5803_52335">
<rect width="96" height="46" fill="white" transform="translate(0 54)"/>
</clipPath>
</defs>
</svg>
