<svg width="20" height="20" viewBox="0 0 20 20" fill="none" xmlns="http://www.w3.org/2000/svg">
<path fill-rule="evenodd" clip-rule="evenodd" d="M9.85757 0.0232355C9.34934 0.205498 8.54029 1.14569 8.23916 1.58846C6.16255 4.64183 9.42939 7.90125 10.1931 7.62323C11.2148 7.25133 14.4077 3.5562 10.8583 0.536736C10.6353 0.346997 10.2219 -0.107409 9.85755 0.0232355H9.85757Z" fill="white"/>
<path fill-rule="evenodd" clip-rule="evenodd" d="M12.4874 16.7144C12.7469 14.7868 11.3596 13.2496 10.4099 12.5472C9.94597 12.204 9.69339 12.4597 9.34388 12.7665C9.07455 13.0029 8.82186 13.2371 8.57881 13.5535C6.83607 15.822 7.45995 18.238 9.65291 19.835C10.1545 20.2003 10.3205 19.8808 10.6851 19.607L11.4759 18.8469C11.9421 18.251 12.351 17.7281 12.4874 16.7144H12.4874Z" fill="white"/>
<path fill-rule="evenodd" clip-rule="evenodd" d="M12.4493 10.0594C12.4595 10.4576 13.6563 11.4342 13.9613 11.6452C17.497 14.0903 20.0311 10.462 19.9996 9.99761C19.968 9.53173 18.861 8.60178 18.5256 8.36084C15.4319 6.1388 12.4371 9.5857 12.4493 10.0594Z" fill="white"/>
<path fill-rule="evenodd" clip-rule="evenodd" d="M0.000468894 10.06C0.04409 10.4299 1.17178 11.4697 1.45215 11.6983C4.27178 13.9974 7.5829 10.6703 7.52073 10.0086C7.47892 9.56331 6.37098 8.68337 6.00388 8.42961C2.50217 6.00902 -0.0396759 9.7193 0.000468894 10.06V10.06Z" fill="white"/>
<path fill-rule="evenodd" clip-rule="evenodd" d="M6.90061 16.6776C6.79996 15.68 6.85802 14.8899 7.15534 14C7.40331 13.2577 8.16547 12.1961 8.10676 12.0109C7.9606 11.5497 7.25146 12.3595 6.12576 12.7739C5.32508 13.0686 4.51973 13.1695 3.55168 13.1762C2.54386 14.3951 2.56706 16.7142 2.91286 17.0794C3.20618 17.3891 4.58831 17.3501 5.07661 17.2908C5.78457 17.2049 6.38022 16.945 6.90061 16.6776Z" fill="white"/>
<path fill-rule="evenodd" clip-rule="evenodd" d="M3.47624 6.89282C5.0844 7.09485 5.51129 6.9449 7.05536 7.76739C7.31706 7.90677 7.81113 8.31263 8.07546 8.20844C8.29477 8.00975 7.92281 7.68186 7.6633 7.22666C7.24872 6.49946 6.99618 5.78055 6.8759 4.9074C6.80022 4.35808 6.89632 3.94274 6.87827 3.48663C5.72455 2.75134 3.46702 2.59394 2.92397 3.04636C2.60933 3.30849 2.70527 4.69497 2.78438 5.12578C2.95116 6.03402 3.14241 6.21376 3.47624 6.89282Z" fill="white"/>
<path fill-rule="evenodd" clip-rule="evenodd" d="M14.9752 17.2835C15.45 17.3497 16.8499 17.411 17.1278 17.075C17.4789 16.6505 17.3635 14.1716 16.4841 13.1862C15.3791 13.1218 14.8101 13.1148 13.8567 12.7745C12.7843 12.3917 12.0224 11.5686 11.8878 12.0091C11.8359 12.1789 12.3074 12.8254 12.4147 12.9942C13.0116 13.9337 13.3793 15.5537 13.1471 16.663C13.7119 16.8975 14.2036 17.176 14.9752 17.2835H14.9752Z" fill="white"/>
<path fill-rule="evenodd" clip-rule="evenodd" d="M13.1628 3.53462C13.2084 5.22585 13.0371 6.25589 12.0705 7.68919C12.0466 7.72469 11.911 7.91523 11.9094 7.91915C11.7808 8.22615 12.0033 8.38887 12.423 8.1012C13.7796 7.1713 14.7941 6.94242 16.5305 6.91574C16.8028 6.32383 17.0626 6.14969 17.2221 5.21453C17.3006 4.75412 17.4393 3.31303 17.0798 3.02563C16.6137 2.65298 14.1127 2.69073 13.1628 3.53467L13.1628 3.53462Z" fill="white"/>
<path fill-rule="evenodd" clip-rule="evenodd" d="M11.1914 10.2535C11.4812 8.73216 9.08902 8.20623 8.78735 9.82741C8.48999 11.4255 10.8715 11.9325 11.1914 10.2535Z" fill="white"/>
</svg>
