<svg width="27" height="27" viewBox="0 0 27 27" fill="none" xmlns="http://www.w3.org/2000/svg">
<path fill-rule="evenodd" clip-rule="evenodd" d="M12.8423 0.0302348C12.1801 0.2674 11.126 1.4908 10.7336 2.06696C8.02802 6.04009 12.2844 10.2814 13.2794 9.91959C14.6106 9.43566 18.7706 4.62743 14.1461 0.698418C13.8556 0.451523 13.3169 -0.139763 12.8422 0.0302348H12.8423Z" fill="#FBD100"/>
<path fill-rule="evenodd" clip-rule="evenodd" d="M16.2682 21.7491C16.6062 19.2408 14.7988 17.2406 13.5615 16.3265C12.957 15.88 12.6279 16.2127 12.1725 16.6119C11.8216 16.9196 11.4924 17.2242 11.1757 17.636C8.90507 20.5878 9.71793 23.7315 12.5751 25.8097C13.2287 26.2851 13.4449 25.8693 13.9199 25.513L14.9503 24.5239C15.5578 23.7485 16.0905 23.0681 16.2682 21.7491H16.2682Z" fill="#FBD100"/>
<path fill-rule="evenodd" clip-rule="evenodd" d="M16.219 13.0908C16.2324 13.6089 17.7917 14.8797 18.1891 15.1542C22.7957 18.3359 26.0974 13.6147 26.0564 13.0104C26.0152 12.4042 24.5729 11.1941 24.1359 10.8805C20.1052 7.98916 16.2032 12.4744 16.219 13.0908Z" fill="#FBD100"/>
<path fill-rule="evenodd" clip-rule="evenodd" d="M0.000610921 13.091C0.0574447 13.5724 1.5267 14.9253 1.892 15.2228C5.56569 18.2145 9.87973 13.8852 9.79874 13.0242C9.74426 12.4447 8.30073 11.2997 7.82244 10.9695C3.26007 7.81976 -0.0516936 12.6477 0.000610921 13.091V13.091Z" fill="#FBD100"/>
<path fill-rule="evenodd" clip-rule="evenodd" d="M8.99191 21.7021C8.86076 20.404 8.93642 19.3758 9.32379 18.2178C9.64687 17.252 10.6399 15.8706 10.5634 15.6295C10.373 15.0294 9.44903 16.0832 7.98235 16.6224C6.93915 17.0059 5.88987 17.1372 4.62859 17.1459C3.31551 18.732 3.34573 21.7497 3.79628 22.2248C4.17845 22.6279 5.97921 22.5772 6.61542 22.5C7.53782 22.3881 8.3139 22.0499 8.99191 21.7021Z" fill="#FBD100"/>
<path fill-rule="evenodd" clip-rule="evenodd" d="M4.52959 8.96961C6.62486 9.23251 7.18105 9.03739 9.19282 10.1076C9.53379 10.289 10.1775 10.8171 10.5219 10.6815C10.8077 10.423 10.323 9.99635 9.9849 9.40402C9.44475 8.45777 9.11572 7.5223 8.95901 6.38612C8.8604 5.67134 8.98561 5.13088 8.96209 4.53738C7.45892 3.5806 4.51758 3.37578 3.81004 3.96448C3.4001 4.30558 3.5251 6.10971 3.62817 6.67029C3.84547 7.85213 4.09465 8.08601 4.52959 8.96961Z" fill="#FBD100"/>
<path fill-rule="evenodd" clip-rule="evenodd" d="M19.5102 22.4904C20.1288 22.5765 21.9527 22.6563 22.3149 22.2191C22.7722 21.6668 22.6219 18.4412 21.4762 17.1588C20.0364 17.0751 19.2951 17.0659 18.053 16.6232C16.6557 16.1251 15.663 15.054 15.4876 15.6273C15.4201 15.8481 16.0344 16.6894 16.1741 16.9091C16.9519 18.1316 17.4309 20.2395 17.1284 21.683C17.8643 21.9882 18.5049 22.3505 19.5103 22.4904H19.5102Z" fill="#FBD100"/>
<path fill-rule="evenodd" clip-rule="evenodd" d="M17.1501 4.60005C17.2096 6.80074 16.9864 8.14106 15.7271 10.0061C15.6958 10.0523 15.5192 10.3002 15.5171 10.3053C15.3495 10.7048 15.6395 10.9166 16.1863 10.5422C17.9538 9.33222 19.2755 9.0344 21.5379 8.99968C21.8927 8.22947 22.2312 8.00287 22.439 6.78601C22.5413 6.18691 22.722 4.31172 22.2536 3.93774C21.6463 3.45284 18.3878 3.50196 17.1501 4.60012L17.1501 4.60005Z" fill="#FBD100"/>
<path fill-rule="evenodd" clip-rule="evenodd" d="M14.5811 13.3422C14.9587 11.3627 11.842 10.6783 11.4489 12.7878C11.0615 14.8674 14.1643 15.5271 14.5811 13.3422Z" fill="#FBD100"/>
</svg>
