<svg width="46" height="46" viewBox="0 0 46 46" fill="none" xmlns="http://www.w3.org/2000/svg">
<path fill-rule="evenodd" clip-rule="evenodd" d="M22.6727 0.0534441C21.5037 0.472667 19.6428 2.6352 18.9501 3.65363C14.1737 10.6767 21.6878 18.1737 23.4444 17.5342C25.7945 16.6788 33.1385 8.17962 24.9745 1.23455C24.4615 0.798129 23.5106 -0.247051 22.6726 0.0534441H22.6727Z" fill="#3B883E"/>
<path fill-rule="evenodd" clip-rule="evenodd" d="M28.7204 38.4457C29.3172 34.0119 26.1263 30.4763 23.942 28.8606C22.8748 28.0712 22.2938 28.6594 21.4899 29.365C20.8705 29.9089 20.2892 30.4474 19.7302 31.1752C15.7217 36.393 17.1567 41.9499 22.2007 45.6234C23.3545 46.4637 23.7362 45.7287 24.5748 45.099L26.3939 43.3506C27.4662 41.98 28.4066 40.7772 28.7204 38.4457H28.7204Z" fill="#3B883E"/>
<path fill-rule="evenodd" clip-rule="evenodd" d="M28.6349 23.1375C28.6584 24.0533 31.4112 26.2997 32.1128 26.7848C40.2452 32.4089 46.0739 24.0635 46.0014 22.9953C45.9287 21.9237 43.3825 19.7847 42.611 19.2305C35.4954 14.1196 28.6068 22.0478 28.6349 23.1375Z" fill="#3B883E"/>
<path fill-rule="evenodd" clip-rule="evenodd" d="M0.00107851 23.1389C0.101412 23.9899 2.69521 26.3814 3.34009 26.9072C9.82555 32.1955 17.4415 24.5428 17.2985 23.0208C17.2023 21.9965 14.6539 19.9726 13.8096 19.3889C5.75525 13.8213 -0.0912588 22.3553 0.00107851 23.139V23.1389Z" fill="#3B883E"/>
<path fill-rule="evenodd" clip-rule="evenodd" d="M15.8722 38.3604C15.6407 36.0658 15.7743 34.2484 16.4581 32.2015C17.0285 30.4942 18.7815 28.0525 18.6465 27.6263C18.3103 26.5656 16.6792 28.4283 14.09 29.3814C12.2483 30.0593 10.396 30.2913 8.16933 30.3067C5.85125 33.1103 5.90461 38.4446 6.69999 39.2844C7.37466 39.9969 10.5537 39.9072 11.6768 39.7708C13.3052 39.5731 14.6753 38.9753 15.8722 38.3604Z" fill="#3B883E"/>
<path fill-rule="evenodd" clip-rule="evenodd" d="M7.99611 15.8539C11.6951 16.3186 12.6769 15.9737 16.2285 17.8655C16.8304 18.1861 17.9668 19.1196 18.5748 18.88C19.0793 18.423 18.2237 17.6688 17.6268 16.6218C16.6732 14.9492 16.0924 13.2956 15.8157 11.2872C15.6416 10.0238 15.8627 9.06842 15.8211 8.01932C13.1675 6.32808 7.97491 5.96603 6.72584 7.00664C6.00212 7.60959 6.22281 10.7986 6.40476 11.7895C6.78838 13.8786 7.22827 14.292 7.99611 15.8539Z" fill="#3B883E"/>
<path fill-rule="evenodd" clip-rule="evenodd" d="M34.4436 39.7539C35.5356 39.9061 38.7555 40.0471 39.3948 39.2743C40.2023 38.298 39.9368 32.5964 37.9142 30.3296C35.3726 30.1816 34.0639 30.1654 31.871 29.3827C29.4042 28.5023 27.6518 26.6091 27.3421 27.6223C27.2229 28.0127 28.3074 29.4998 28.5541 29.8882C29.9272 32.049 30.7729 35.7751 30.2388 38.3268C31.5379 38.8661 32.6688 39.5066 34.4437 39.7539H34.4436Z" fill="#3B883E"/>
<path fill-rule="evenodd" clip-rule="evenodd" d="M30.276 8.13042C30.381 12.0204 29.987 14.3896 27.7638 17.6864C27.7088 17.768 27.3969 18.2063 27.3931 18.2153C27.0973 18.9214 27.6092 19.2957 28.5745 18.6341C31.6948 16.4952 34.0283 15.9687 38.0222 15.9074C38.6486 14.5459 39.2461 14.1454 39.6129 11.9944C39.7935 10.9354 40.1125 7.62076 39.2856 6.9597C38.2135 6.10257 32.4611 6.18939 30.2761 8.13054L30.276 8.13042Z" fill="#3B883E"/>
<path fill-rule="evenodd" clip-rule="evenodd" d="M25.7408 23.5838C26.4074 20.0847 20.9052 18.875 20.2113 22.6039C19.5273 26.2797 25.005 27.4458 25.7408 23.5838Z" fill="#3B883E"/>
</svg>
