<svg width="353" height="176" viewBox="0 0 353 176" fill="none" xmlns="http://www.w3.org/2000/svg">
<g clip-path="url(#clip0_106_24068)">
<path d="M0 24C0 10.7452 10.7452 0 24 0H329C342.255 0 353 10.7452 353 24V151.979C353 165.234 342.255 175.979 329 175.979H24C10.7452 175.979 0 165.234 0 151.979V24Z" fill="url(#paint0_linear_106_24068)"/>
<g opacity="0.4">
<mask id="path-2-inside-1_106_24068" fill="white">
<path d="M268.952 43.9902C268.952 26.3182 283.278 11.9922 300.95 11.9922C318.622 11.9922 332.948 26.3182 332.948 43.9902C332.948 61.6622 318.622 75.9882 300.95 75.9882C283.278 75.9882 268.952 61.6622 268.952 43.9902Z"/>
</mask>
<path d="M300.95 75.9882V74.1521C284.292 74.1521 270.788 60.6481 270.788 43.9902H268.952H267.115C267.115 62.6762 282.263 77.8243 300.95 77.8243V75.9882ZM332.948 43.9902H331.111C331.111 60.6481 317.607 74.1521 300.95 74.1521V75.9882V77.8243C319.636 77.8243 334.784 62.6762 334.784 43.9902H332.948ZM300.95 11.9922V13.8283C317.607 13.8283 331.111 27.3322 331.111 43.9902H332.948H334.784C334.784 25.3041 319.636 10.1561 300.95 10.1561V11.9922ZM300.95 11.9922V10.1561C282.263 10.1561 267.115 25.3041 267.115 43.9902H268.952H270.788C270.788 27.3322 284.292 13.8283 300.95 13.8283V11.9922Z" fill="#E9D4FF" mask="url(#path-2-inside-1_106_24068)"/>
</g>
<g opacity="0.4">
<mask id="path-4-inside-2_106_24068" fill="white">
<path d="M11.9921 139.989C11.9921 126.735 22.7366 115.99 35.9906 115.99C49.2446 115.99 59.9891 126.735 59.9891 139.989C59.9891 153.243 49.2446 163.987 35.9906 163.987C22.7366 163.987 11.9921 153.243 11.9921 139.989Z"/>
</mask>
<path d="M35.9906 163.987V162.151C23.7506 162.151 13.8282 152.229 13.8282 139.989H11.9921H10.156C10.156 154.257 21.7225 165.823 35.9906 165.823V163.987ZM59.9891 139.989H58.153C58.153 152.229 48.2305 162.151 35.9906 162.151V163.987V165.823C50.2586 165.823 61.8252 154.257 61.8252 139.989H59.9891ZM35.9906 115.99V117.826C48.2305 117.826 58.153 127.749 58.153 139.989H59.9891H61.8252C61.8252 125.721 50.2586 114.154 35.9906 114.154V115.99ZM35.9906 115.99V114.154C21.7225 114.154 10.156 125.721 10.156 139.989H11.9921H13.8282C13.8282 127.749 23.7506 117.826 35.9906 117.826V115.99Z" fill="#DDD6FF" mask="url(#path-4-inside-2_106_24068)"/>
</g>
<g filter="url(#filter0_d_106_24068)">
<path d="M124.473 63.9927C124.473 50.7379 135.218 39.9927 148.473 39.9927H196.467C209.722 39.9927 220.467 50.7378 220.467 63.9927V111.987C220.467 125.241 209.722 135.987 196.467 135.987H148.473C135.218 135.987 124.473 125.242 124.473 111.987V63.9927Z" fill="url(#paint1_linear_106_24068)" shape-rendering="crispEdges"/>
<path d="M169.001 105.984C169.352 106.592 169.857 107.097 170.465 107.448C171.073 107.799 171.763 107.983 172.465 107.983C173.167 107.983 173.857 107.799 174.465 107.448C175.073 107.097 175.578 106.592 175.929 105.984" stroke="white" stroke-width="4.99969" stroke-linecap="round" stroke-linejoin="round"/>
<path d="M192.464 79.9853C192.464 75.3856 190.864 71.3859 188.464 67.9861" stroke="white" stroke-width="4.99969" stroke-linecap="round" stroke-linejoin="round"/>
<path d="M154.99 94.6364C154.729 94.9228 154.556 95.2789 154.494 95.6614C154.431 96.0439 154.481 96.4364 154.638 96.7911C154.794 97.1458 155.05 97.4474 155.375 97.6592C155.699 97.871 156.078 97.9839 156.466 97.9842H188.464C188.852 97.9844 189.231 97.8719 189.556 97.6604C189.881 97.449 190.137 97.1478 190.294 96.7933C190.45 96.4389 190.501 96.0465 190.439 95.6639C190.377 95.2814 190.205 94.9251 189.944 94.6384C187.284 91.8966 184.464 88.9828 184.464 79.9853C184.464 76.8029 183.2 73.7509 180.95 71.5006C178.699 69.2503 175.647 67.9861 172.465 67.9861C169.283 67.9861 166.231 69.2503 163.98 71.5006C161.73 73.7509 160.466 76.8029 160.466 79.9853C160.466 88.9828 157.644 91.8966 154.99 94.6364Z" stroke="white" stroke-width="4.99969" stroke-linecap="round" stroke-linejoin="round"/>
<path d="M156.466 67.9861C154.066 71.3859 152.466 75.3856 152.466 79.9853" stroke="white" stroke-width="4.99969" stroke-linecap="round" stroke-linejoin="round"/>
<g filter="url(#filter1_dd_106_24068)">
<mask id="path-11-inside-3_106_24068" fill="white">
<path d="M196.464 47.997C196.464 39.161 203.627 31.998 212.463 31.998C221.299 31.998 228.462 39.161 228.462 47.997C228.462 56.833 221.299 63.996 212.463 63.996C203.627 63.996 196.464 56.833 196.464 47.997Z"/>
</mask>
<path d="M196.464 47.997C196.464 39.161 203.627 31.998 212.463 31.998C221.299 31.998 228.462 39.161 228.462 47.997C228.462 56.833 221.299 63.996 212.463 63.996C203.627 63.996 196.464 56.833 196.464 47.997Z" fill="url(#paint2_linear_106_24068)" shape-rendering="crispEdges"/>
<path d="M212.463 63.996V60.3238C205.655 60.3238 200.136 54.8049 200.136 47.997H196.464H192.791C192.791 58.8612 201.598 67.6683 212.463 67.6683V63.996ZM228.462 47.997H224.789C224.789 54.8049 219.27 60.3238 212.463 60.3238V63.996V67.6683C223.327 67.6683 232.134 58.8612 232.134 47.997H228.462ZM212.463 31.998V35.6703C219.27 35.6703 224.789 41.1892 224.789 47.997H228.462H232.134C232.134 37.1329 223.327 28.3258 212.463 28.3258V31.998ZM212.463 31.998V28.3258C201.598 28.3258 192.791 37.1329 192.791 47.997H196.464H200.136C200.136 41.1892 205.655 35.6703 212.463 35.6703V31.998Z" fill="white" mask="url(#path-11-inside-3_106_24068)"/>
<path d="M212.547 52.7289C211.984 52.7289 211.483 52.6323 211.043 52.4392C210.605 52.246 210.257 51.9775 209.999 51.6338C209.743 51.2872 209.604 50.8852 209.581 50.4278H210.655C210.678 50.7091 210.774 50.9519 210.945 51.1565C211.115 51.3582 211.338 51.5144 211.614 51.6252C211.889 51.736 212.195 51.7914 212.53 51.7914C212.905 51.7914 213.237 51.7261 213.527 51.5954C213.817 51.4647 214.044 51.2829 214.209 51.05C214.374 50.817 214.456 50.5471 214.456 50.2403C214.456 49.9193 214.377 49.6366 214.217 49.3923C214.058 49.1451 213.825 48.9519 213.519 48.8127C213.212 48.6735 212.837 48.6039 212.394 48.6039H211.695V47.6664H212.394C212.74 47.6664 213.044 47.6039 213.305 47.4789C213.57 47.3539 213.776 47.1778 213.923 46.9505C214.074 46.7233 214.149 46.4562 214.149 46.1494C214.149 45.8539 214.084 45.5968 213.953 45.3781C213.823 45.1593 213.638 44.9889 213.399 44.8667C213.163 44.7446 212.885 44.6835 212.564 44.6835C212.263 44.6835 211.979 44.7389 211.712 44.8497C211.448 44.9576 211.232 45.1153 211.064 45.3227C210.896 45.5272 210.805 45.7744 210.791 46.0642H209.769C209.786 45.6068 209.923 45.2062 210.182 44.8625C210.44 44.5159 210.778 44.246 211.196 44.0528C211.617 43.8596 212.078 43.763 212.581 43.763C213.121 43.763 213.584 43.8724 213.97 44.0912C214.357 44.3071 214.653 44.5926 214.861 44.9477C215.068 45.3028 215.172 45.6863 215.172 46.0983C215.172 46.5897 215.043 47.0088 214.784 47.3554C214.528 47.7019 214.18 47.942 213.74 48.0755V48.1437C214.291 48.2346 214.722 48.469 215.031 48.8468C215.341 49.2218 215.496 49.6863 215.496 50.2403C215.496 50.7147 215.367 51.1409 215.108 51.5187C214.852 51.8937 214.503 52.1892 214.06 52.4051C213.617 52.621 213.112 52.7289 212.547 52.7289Z" fill="white"/>
</g>
</g>
<g filter="url(#filter2_dd_106_24068)">
<mask id="path-14-inside-4_106_24068" fill="white">
<path d="M106.018 29.4002C106.018 21.6682 112.286 15.4001 120.018 15.4001H132.427C140.159 15.4001 146.427 21.6682 146.427 29.4001V41.8092C146.427 49.5412 140.159 55.8092 132.427 55.8092H120.018C112.286 55.8092 106.018 49.5412 106.018 41.8092V29.4002Z"/>
</mask>
<path d="M106.018 29.4002C106.018 21.6682 112.286 15.4001 120.018 15.4001H132.427C140.159 15.4001 146.427 21.6682 146.427 29.4001V41.8092C146.427 49.5412 140.159 55.8092 132.427 55.8092H120.018C112.286 55.8092 106.018 49.5412 106.018 41.8092V29.4002Z" fill="white" shape-rendering="crispEdges"/>
<path d="M120.018 15.4001V16.0122H132.427V15.4001V14.7881H120.018V15.4001ZM146.427 29.4001H145.815V41.8092H146.427H147.039V29.4001H146.427ZM132.427 55.8092V55.1972H120.018V55.8092V56.4213H132.427V55.8092ZM106.018 41.8092H106.63V29.4002H106.018H105.406V41.8092H106.018ZM120.018 55.8092V55.1972C112.624 55.1972 106.63 49.2032 106.63 41.8092H106.018H105.406C105.406 49.8792 111.948 56.4213 120.018 56.4213V55.8092ZM146.427 41.8092H145.815C145.815 49.2032 139.821 55.1972 132.427 55.1972V55.8092V56.4213C140.497 56.4213 147.039 49.8792 147.039 41.8092H146.427ZM132.427 15.4001V16.0122C139.821 16.0122 145.815 22.0062 145.815 29.4001H146.427H147.039C147.039 21.3301 140.497 14.7881 132.427 14.7881V15.4001ZM120.018 15.4001V14.7881C111.948 14.7881 105.406 21.3302 105.406 29.4002H106.018H106.63C106.63 22.0062 112.624 16.0122 120.018 16.0122V15.4001Z" fill="#F3F4F6" fill-opacity="0.5" mask="url(#path-14-inside-4_106_24068)"/>
<g clip-path="url(#clip1_106_24068)">
<path d="M125.39 27.8714C125.427 27.6782 125.529 27.5038 125.68 27.3783C125.831 27.2528 126.022 27.1841 126.218 27.1841C126.414 27.1841 126.605 27.2528 126.756 27.3783C126.907 27.5038 127.009 27.6782 127.046 27.8714L127.93 32.5504C127.993 32.8831 128.155 33.189 128.394 33.4284C128.634 33.6678 128.94 33.8295 129.272 33.8923L133.951 34.7771C134.144 34.8132 134.319 34.9157 134.444 35.0668C134.57 35.2179 134.639 35.4082 134.639 35.6047C134.639 35.8011 134.57 35.9914 134.444 36.1425C134.319 36.2937 134.144 36.3961 133.951 36.4322L129.272 37.317C128.94 37.3798 128.634 37.5415 128.394 37.7809C128.155 38.0203 127.993 38.3262 127.93 38.6589L127.046 43.3379C127.009 43.5311 126.907 43.7055 126.756 43.831C126.605 43.9565 126.414 44.0252 126.218 44.0252C126.022 44.0252 125.831 43.9565 125.68 43.831C125.529 43.7055 125.427 43.5311 125.39 43.3379L124.506 38.6589C124.443 38.3262 124.281 38.0203 124.042 37.7809C123.802 37.5415 123.496 37.3798 123.164 37.317L118.485 36.4322C118.292 36.3961 118.117 36.2937 117.992 36.1425C117.866 35.9914 117.797 35.8011 117.797 35.6047C117.797 35.4082 117.866 35.2179 117.992 35.0668C118.117 34.9157 118.292 34.8132 118.485 34.7771L123.164 33.8923C123.496 33.8295 123.802 33.6678 124.042 33.4284C124.281 33.189 124.443 32.8831 124.506 32.5504L125.39 27.8714Z" fill="#FE9A00" stroke="#FE9A00" stroke-width="1.68371" stroke-linecap="round" stroke-linejoin="round"/>
<path d="M132.953 27.186V30.5535V27.186Z" fill="#FE9A00"/>
<path d="M132.953 27.186V30.5535" stroke="#FE9A00" stroke-width="1.68371" stroke-linecap="round" stroke-linejoin="round"/>
<path d="M134.637 28.8699H131.269H134.637Z" fill="#FE9A00"/>
<path d="M134.637 28.8699H131.269" stroke="#FE9A00" stroke-width="1.68371" stroke-linecap="round" stroke-linejoin="round"/>
<path d="M119.483 44.0232C120.413 44.0232 121.167 43.2694 121.167 42.3395C121.167 41.4096 120.413 40.6558 119.483 40.6558C118.553 40.6558 117.799 41.4096 117.799 42.3395C117.799 43.2694 118.553 44.0232 119.483 44.0232Z" fill="#FE9A00" stroke="#FE9A00" stroke-width="1.68371" stroke-linecap="round" stroke-linejoin="round"/>
</g>
</g>
<g filter="url(#filter3_dd_106_24068)">
<mask id="path-22-inside-5_106_24068" fill="white">
<path d="M197.849 27.4302C197.849 19.6982 204.117 13.4302 211.849 13.4302H225.585C233.317 13.4302 239.585 19.6982 239.585 27.4302V41.1666C239.585 48.8986 233.317 55.1666 225.585 55.1666H211.849C204.117 55.1666 197.849 48.8986 197.849 41.1666V27.4302Z"/>
</mask>
<path d="M197.849 27.4302C197.849 19.6982 204.117 13.4302 211.849 13.4302H225.585C233.317 13.4302 239.585 19.6982 239.585 27.4302V41.1666C239.585 48.8986 233.317 55.1666 225.585 55.1666H211.849C204.117 55.1666 197.849 48.8986 197.849 41.1666V27.4302Z" fill="white" shape-rendering="crispEdges"/>
<path d="M211.849 13.4302V14.0422H225.585V13.4302V12.8181H211.849V13.4302ZM239.585 27.4302H238.973V41.1666H239.585H240.197V27.4302H239.585ZM225.585 55.1666V54.5546H211.849V55.1666V55.7786H225.585V55.1666ZM197.849 41.1666H198.461V27.4302H197.849H197.237V41.1666H197.849ZM211.849 55.1666V54.5546C204.455 54.5546 198.461 48.5606 198.461 41.1666H197.849H197.237C197.237 49.2366 203.779 55.7786 211.849 55.7786V55.1666ZM239.585 41.1666H238.973C238.973 48.5606 232.979 54.5546 225.585 54.5546V55.1666V55.7786C233.655 55.7786 240.197 49.2366 240.197 41.1666H239.585ZM225.585 13.4302V14.0422C232.979 14.0422 238.973 20.0362 238.973 27.4302H239.585H240.197C240.197 19.3602 233.655 12.8181 225.585 12.8181V13.4302ZM211.849 13.4302V12.8181C203.779 12.8181 197.237 19.3602 197.237 27.4302H197.849H198.461C198.461 20.0362 204.455 14.0422 211.849 14.0422V13.4302Z" fill="#F3F4F6" fill-opacity="0.5" mask="url(#path-22-inside-5_106_24068)"/>
<g clip-path="url(#clip2_106_24068)">
<path d="M218.712 42.9935C223.514 42.9935 227.407 39.1005 227.407 34.2984C227.407 29.4962 223.514 25.6033 218.712 25.6033C213.91 25.6033 210.017 29.4962 210.017 34.2984C210.017 39.1005 213.91 42.9935 218.712 42.9935Z" stroke="#00BC7D" stroke-width="2.17377" stroke-linecap="round" stroke-linejoin="round"/>
<path d="M216.103 34.2983L217.842 36.0374L221.32 32.5593" stroke="#00BC7D" stroke-width="2.17377" stroke-linecap="round" stroke-linejoin="round"/>
</g>
</g>
<g filter="url(#filter4_dd_106_24068)">
<mask id="path-26-inside-6_106_24068" fill="white">
<path d="M14.1956 96.1194C14.1956 88.3874 20.4636 82.1194 28.1956 82.1194H43.7952C51.5272 82.1194 57.7952 88.3874 57.7952 96.1194V111.719C57.7952 119.451 51.5272 125.719 43.7952 125.719H28.1956C20.4636 125.719 14.1956 119.451 14.1956 111.719V96.1194Z"/>
</mask>
<path d="M14.1956 96.1194C14.1956 88.3874 20.4636 82.1194 28.1956 82.1194H43.7952C51.5272 82.1194 57.7952 88.3874 57.7952 96.1194V111.719C57.7952 119.451 51.5272 125.719 43.7952 125.719H28.1956C20.4636 125.719 14.1956 119.451 14.1956 111.719V96.1194Z" fill="white" shape-rendering="crispEdges"/>
<path d="M28.1956 82.1194V82.7314H43.7952V82.1194V81.5073H28.1956V82.1194ZM57.7952 96.1194H57.1831V111.719H57.7952H58.4072V96.1194H57.7952ZM43.7952 125.719V125.107H28.1956V125.719V126.331H43.7952V125.719ZM14.1956 111.719H14.8076V96.1194H14.1956H13.5835V111.719H14.1956ZM28.1956 125.719V125.107C20.8016 125.107 14.8076 119.113 14.8076 111.719H14.1956H13.5835C13.5835 119.789 20.1256 126.331 28.1956 126.331V125.719ZM57.7952 111.719H57.1831C57.1831 119.113 51.1892 125.107 43.7952 125.107V125.719V126.331C51.8652 126.331 58.4072 119.789 58.4072 111.719H57.7952ZM43.7952 82.1194V82.7314C51.1891 82.7314 57.1831 88.7254 57.1831 96.1194H57.7952H58.4072C58.4072 88.0494 51.8652 81.5073 43.7952 81.5073V82.1194ZM28.1956 82.1194V81.5073C20.1255 81.5073 13.5835 88.0494 13.5835 96.1194H14.1956H14.8076C14.8076 88.7254 20.8016 82.7314 28.1956 82.7314V82.1194Z" fill="#F3F4F6" fill-opacity="0.5" mask="url(#path-26-inside-6_106_24068)"/>
<g clip-path="url(#clip3_106_24068)">
<path d="M34.7323 110.46C34.8599 110.681 35.0434 110.864 35.2643 110.992C35.4853 111.119 35.7359 111.187 35.9911 111.187C36.2462 111.187 36.4968 111.119 36.7178 110.992C36.9387 110.864 37.1222 110.681 37.2498 110.46" stroke="#8E51FF" stroke-width="1.81687" stroke-linecap="round" stroke-linejoin="round"/>
<path d="M43.2585 101.012C43.2585 99.3408 42.6771 97.8873 41.805 96.6519" stroke="#8E51FF" stroke-width="1.81687" stroke-linecap="round" stroke-linejoin="round"/>
<path d="M29.6407 106.336C29.5458 106.441 29.4832 106.57 29.4604 106.709C29.4377 106.848 29.4558 106.991 29.5126 107.119C29.5694 107.248 29.6625 107.358 29.7805 107.435C29.8984 107.512 30.0362 107.553 30.1771 107.553H41.805C41.9459 107.553 42.0837 107.512 42.2017 107.435C42.3198 107.359 42.413 107.249 42.4699 107.12C42.5269 106.991 42.5452 106.849 42.5227 106.71C42.5001 106.571 42.4376 106.441 42.3428 106.337C41.3763 105.341 40.3515 104.282 40.3515 101.012C40.3515 99.8559 39.8921 98.7468 39.0744 97.929C38.2566 97.1113 37.1475 96.6519 35.9911 96.6519C34.8346 96.6519 33.7255 97.1113 32.9077 97.929C32.09 98.7468 31.6306 99.8559 31.6306 101.012C31.6306 104.282 30.6051 105.341 29.6407 106.336Z" stroke="#8E51FF" stroke-width="1.81687" stroke-linecap="round" stroke-linejoin="round"/>
<path d="M30.1771 96.6519C29.305 97.8873 28.7236 99.3408 28.7236 101.012" stroke="#8E51FF" stroke-width="1.81687" stroke-linecap="round" stroke-linejoin="round"/>
</g>
</g>
<g filter="url(#filter5_dd_106_24068)">
<mask id="path-32-inside-7_106_24068" fill="white">
<path d="M288.172 99.7153C288.172 91.9834 294.44 85.7153 302.172 85.7153H315.716C323.448 85.7153 329.716 91.9833 329.716 99.7153V113.26C329.716 120.992 323.448 127.26 315.716 127.26H302.172C294.44 127.26 288.172 120.992 288.172 113.26V99.7153Z"/>
</mask>
<path d="M288.172 99.7153C288.172 91.9834 294.44 85.7153 302.172 85.7153H315.716C323.448 85.7153 329.716 91.9833 329.716 99.7153V113.26C329.716 120.992 323.448 127.26 315.716 127.26H302.172C294.44 127.26 288.172 120.992 288.172 113.26V99.7153Z" fill="white" shape-rendering="crispEdges"/>
<path d="M302.172 85.7153V86.3274H315.716V85.7153V85.1033H302.172V85.7153ZM329.716 99.7153H329.104V113.26H329.716H330.328V99.7153H329.716ZM315.716 127.26V126.648H302.172V127.26V127.872H315.716V127.26ZM288.172 113.26H288.784V99.7153H288.172H287.56V113.26H288.172ZM302.172 127.26V126.648C294.778 126.648 288.784 120.654 288.784 113.26H288.172H287.56C287.56 121.33 294.102 127.872 302.172 127.872V127.26ZM329.716 113.26H329.104C329.104 120.654 323.11 126.648 315.716 126.648V127.26V127.872C323.786 127.872 330.328 121.33 330.328 113.26H329.716ZM315.716 85.7153V86.3274C323.11 86.3274 329.104 92.3214 329.104 99.7153H329.716H330.328C330.328 91.6453 323.786 85.1033 315.716 85.1033V85.7153ZM302.172 85.7153V85.1033C294.102 85.1033 287.56 91.6453 287.56 99.7153H288.172H288.784C288.784 92.3214 294.778 86.3274 302.172 86.3274V85.7153Z" fill="#F3F4F6" fill-opacity="0.5" mask="url(#path-32-inside-7_106_24068)"/>
<g clip-path="url(#clip4_106_24068)">
<path d="M308.259 100.126C308.288 99.9675 308.373 99.824 308.497 99.7208C308.621 99.6176 308.778 99.561 308.939 99.561C309.101 99.561 309.257 99.6176 309.382 99.7208C309.506 99.824 309.59 99.9675 309.62 100.126L310.348 103.975C310.4 104.249 310.532 104.501 310.729 104.697C310.926 104.894 311.178 105.027 311.452 105.079L315.3 105.807C315.459 105.837 315.603 105.921 315.706 106.045C315.809 106.169 315.866 106.326 315.866 106.488C315.866 106.649 315.809 106.806 315.706 106.93C315.603 107.054 315.459 107.139 315.3 107.168L311.452 107.896C311.178 107.948 310.926 108.081 310.729 108.278C310.532 108.475 310.4 108.726 310.348 109L309.62 112.849C309.59 113.008 309.506 113.151 309.382 113.254C309.257 113.358 309.101 113.414 308.939 113.414C308.778 113.414 308.621 113.358 308.497 113.254C308.373 113.151 308.288 113.008 308.259 112.849L307.531 109C307.479 108.726 307.346 108.475 307.149 108.278C306.952 108.081 306.701 107.948 306.427 107.896L302.578 107.168C302.419 107.139 302.276 107.054 302.173 106.93C302.069 106.806 302.013 106.649 302.013 106.488C302.013 106.326 302.069 106.169 302.173 106.045C302.276 105.921 302.419 105.837 302.578 105.807L306.427 105.079C306.701 105.027 306.952 104.894 307.149 104.697C307.346 104.501 307.479 104.249 307.531 103.975L308.259 100.126Z" fill="#F6339A" stroke="#F6339A" stroke-width="1.38498" stroke-linecap="round" stroke-linejoin="round"/>
<path d="M314.479 99.5627V102.333V99.5627Z" fill="#F6339A"/>
<path d="M314.479 99.5627V102.333" stroke="#F6339A" stroke-width="1.38498" stroke-linecap="round" stroke-linejoin="round"/>
<path d="M315.864 100.948H313.094H315.864Z" fill="#F6339A"/>
<path d="M315.864 100.948H313.094" stroke="#F6339A" stroke-width="1.38498" stroke-linecap="round" stroke-linejoin="round"/>
<path d="M303.399 113.413C304.164 113.413 304.784 112.792 304.784 112.028C304.784 111.263 304.164 110.643 303.399 110.643C302.634 110.643 302.014 111.263 302.014 112.028C302.014 112.792 302.634 113.413 303.399 113.413Z" fill="#F6339A" stroke="#F6339A" stroke-width="1.38498" stroke-linecap="round" stroke-linejoin="round"/>
</g>
</g>
</g>
<defs>
<filter id="filter0_d_106_24068" x="86.4728" y="18.998" width="179.989" height="179.989" filterUnits="userSpaceOnUse" color-interpolation-filters="sRGB">
<feFlood flood-opacity="0" result="BackgroundImageFix"/>
<feColorMatrix in="SourceAlpha" type="matrix" values="0 0 0 0 0 0 0 0 0 0 0 0 0 0 0 0 0 0 127 0" result="hardAlpha"/>
<feMorphology radius="12" operator="erode" in="SourceAlpha" result="effect1_dropShadow_106_24068"/>
<feOffset dy="25"/>
<feGaussianBlur stdDeviation="25"/>
<feComposite in2="hardAlpha" operator="out"/>
<feColorMatrix type="matrix" values="0 0 0 0 0 0 0 0 0 0 0 0 0 0 0 0 0 0 0.15 0"/>
<feBlend mode="normal" in2="BackgroundImageFix" result="effect1_dropShadow_106_24068"/>
<feBlend mode="normal" in="SourceGraphic" in2="effect1_dropShadow_106_24068" result="shape"/>
</filter>
<filter id="filter1_dd_106_24068" x="184.464" y="29.998" width="55.998" height="55.998" filterUnits="userSpaceOnUse" color-interpolation-filters="sRGB">
<feFlood flood-opacity="0" result="BackgroundImageFix"/>
<feColorMatrix in="SourceAlpha" type="matrix" values="0 0 0 0 0 0 0 0 0 0 0 0 0 0 0 0 0 0 127 0" result="hardAlpha"/>
<feMorphology radius="4" operator="erode" in="SourceAlpha" result="effect1_dropShadow_106_24068"/>
<feOffset dy="4"/>
<feGaussianBlur stdDeviation="3"/>
<feComposite in2="hardAlpha" operator="out"/>
<feColorMatrix type="matrix" values="0 0 0 0 0 0 0 0 0 0 0 0 0 0 0 0 0 0 0.1 0"/>
<feBlend mode="normal" in2="BackgroundImageFix" result="effect1_dropShadow_106_24068"/>
<feColorMatrix in="SourceAlpha" type="matrix" values="0 0 0 0 0 0 0 0 0 0 0 0 0 0 0 0 0 0 127 0" result="hardAlpha"/>
<feMorphology radius="3" operator="erode" in="SourceAlpha" result="effect2_dropShadow_106_24068"/>
<feOffset dy="10"/>
<feGaussianBlur stdDeviation="7.5"/>
<feComposite in2="hardAlpha" operator="out"/>
<feColorMatrix type="matrix" values="0 0 0 0 0 0 0 0 0 0 0 0 0 0 0 0 0 0 0.1 0"/>
<feBlend mode="normal" in2="effect1_dropShadow_106_24068" result="effect2_dropShadow_106_24068"/>
<feBlend mode="normal" in="SourceGraphic" in2="effect2_dropShadow_106_24068" result="shape"/>
</filter>
<filter id="filter2_dd_106_24068" x="94.0183" y="13.4001" width="64.4091" height="64.4092" filterUnits="userSpaceOnUse" color-interpolation-filters="sRGB">
<feFlood flood-opacity="0" result="BackgroundImageFix"/>
<feColorMatrix in="SourceAlpha" type="matrix" values="0 0 0 0 0 0 0 0 0 0 0 0 0 0 0 0 0 0 127 0" result="hardAlpha"/>
<feMorphology radius="4" operator="erode" in="SourceAlpha" result="effect1_dropShadow_106_24068"/>
<feOffset dy="4"/>
<feGaussianBlur stdDeviation="3"/>
<feComposite in2="hardAlpha" operator="out"/>
<feColorMatrix type="matrix" values="0 0 0 0 0 0 0 0 0 0 0 0 0 0 0 0 0 0 0.1 0"/>
<feBlend mode="normal" in2="BackgroundImageFix" result="effect1_dropShadow_106_24068"/>
<feColorMatrix in="SourceAlpha" type="matrix" values="0 0 0 0 0 0 0 0 0 0 0 0 0 0 0 0 0 0 127 0" result="hardAlpha"/>
<feMorphology radius="3" operator="erode" in="SourceAlpha" result="effect2_dropShadow_106_24068"/>
<feOffset dy="10"/>
<feGaussianBlur stdDeviation="7.5"/>
<feComposite in2="hardAlpha" operator="out"/>
<feColorMatrix type="matrix" values="0 0 0 0 0 0 0 0 0 0 0 0 0 0 0 0 0 0 0.1 0"/>
<feBlend mode="normal" in2="effect1_dropShadow_106_24068" result="effect2_dropShadow_106_24068"/>
<feBlend mode="normal" in="SourceGraphic" in2="effect2_dropShadow_106_24068" result="shape"/>
</filter>
<filter id="filter3_dd_106_24068" x="185.849" y="11.4302" width="65.7365" height="65.7363" filterUnits="userSpaceOnUse" color-interpolation-filters="sRGB">
<feFlood flood-opacity="0" result="BackgroundImageFix"/>
<feColorMatrix in="SourceAlpha" type="matrix" values="0 0 0 0 0 0 0 0 0 0 0 0 0 0 0 0 0 0 127 0" result="hardAlpha"/>
<feMorphology radius="4" operator="erode" in="SourceAlpha" result="effect1_dropShadow_106_24068"/>
<feOffset dy="4"/>
<feGaussianBlur stdDeviation="3"/>
<feComposite in2="hardAlpha" operator="out"/>
<feColorMatrix type="matrix" values="0 0 0 0 0 0 0 0 0 0 0 0 0 0 0 0 0 0 0.1 0"/>
<feBlend mode="normal" in2="BackgroundImageFix" result="effect1_dropShadow_106_24068"/>
<feColorMatrix in="SourceAlpha" type="matrix" values="0 0 0 0 0 0 0 0 0 0 0 0 0 0 0 0 0 0 127 0" result="hardAlpha"/>
<feMorphology radius="3" operator="erode" in="SourceAlpha" result="effect2_dropShadow_106_24068"/>
<feOffset dy="10"/>
<feGaussianBlur stdDeviation="7.5"/>
<feComposite in2="hardAlpha" operator="out"/>
<feColorMatrix type="matrix" values="0 0 0 0 0 0 0 0 0 0 0 0 0 0 0 0 0 0 0.1 0"/>
<feBlend mode="normal" in2="effect1_dropShadow_106_24068" result="effect2_dropShadow_106_24068"/>
<feBlend mode="normal" in="SourceGraphic" in2="effect2_dropShadow_106_24068" result="shape"/>
</filter>
<filter id="filter4_dd_106_24068" x="2.19556" y="80.1194" width="67.5996" height="67.5996" filterUnits="userSpaceOnUse" color-interpolation-filters="sRGB">
<feFlood flood-opacity="0" result="BackgroundImageFix"/>
<feColorMatrix in="SourceAlpha" type="matrix" values="0 0 0 0 0 0 0 0 0 0 0 0 0 0 0 0 0 0 127 0" result="hardAlpha"/>
<feMorphology radius="4" operator="erode" in="SourceAlpha" result="effect1_dropShadow_106_24068"/>
<feOffset dy="4"/>
<feGaussianBlur stdDeviation="3"/>
<feComposite in2="hardAlpha" operator="out"/>
<feColorMatrix type="matrix" values="0 0 0 0 0 0 0 0 0 0 0 0 0 0 0 0 0 0 0.1 0"/>
<feBlend mode="normal" in2="BackgroundImageFix" result="effect1_dropShadow_106_24068"/>
<feColorMatrix in="SourceAlpha" type="matrix" values="0 0 0 0 0 0 0 0 0 0 0 0 0 0 0 0 0 0 127 0" result="hardAlpha"/>
<feMorphology radius="3" operator="erode" in="SourceAlpha" result="effect2_dropShadow_106_24068"/>
<feOffset dy="10"/>
<feGaussianBlur stdDeviation="7.5"/>
<feComposite in2="hardAlpha" operator="out"/>
<feColorMatrix type="matrix" values="0 0 0 0 0 0 0 0 0 0 0 0 0 0 0 0 0 0 0.1 0"/>
<feBlend mode="normal" in2="effect1_dropShadow_106_24068" result="effect2_dropShadow_106_24068"/>
<feBlend mode="normal" in="SourceGraphic" in2="effect2_dropShadow_106_24068" result="shape"/>
</filter>
<filter id="filter5_dd_106_24068" x="276.172" y="83.7153" width="65.5443" height="65.5444" filterUnits="userSpaceOnUse" color-interpolation-filters="sRGB">
<feFlood flood-opacity="0" result="BackgroundImageFix"/>
<feColorMatrix in="SourceAlpha" type="matrix" values="0 0 0 0 0 0 0 0 0 0 0 0 0 0 0 0 0 0 127 0" result="hardAlpha"/>
<feMorphology radius="4" operator="erode" in="SourceAlpha" result="effect1_dropShadow_106_24068"/>
<feOffset dy="4"/>
<feGaussianBlur stdDeviation="3"/>
<feComposite in2="hardAlpha" operator="out"/>
<feColorMatrix type="matrix" values="0 0 0 0 0 0 0 0 0 0 0 0 0 0 0 0 0 0 0.1 0"/>
<feBlend mode="normal" in2="BackgroundImageFix" result="effect1_dropShadow_106_24068"/>
<feColorMatrix in="SourceAlpha" type="matrix" values="0 0 0 0 0 0 0 0 0 0 0 0 0 0 0 0 0 0 127 0" result="hardAlpha"/>
<feMorphology radius="3" operator="erode" in="SourceAlpha" result="effect2_dropShadow_106_24068"/>
<feOffset dy="10"/>
<feGaussianBlur stdDeviation="7.5"/>
<feComposite in2="hardAlpha" operator="out"/>
<feColorMatrix type="matrix" values="0 0 0 0 0 0 0 0 0 0 0 0 0 0 0 0 0 0 0.1 0"/>
<feBlend mode="normal" in2="effect1_dropShadow_106_24068" result="effect2_dropShadow_106_24068"/>
<feBlend mode="normal" in="SourceGraphic" in2="effect2_dropShadow_106_24068" result="shape"/>
</filter>
<linearGradient id="paint0_linear_106_24068" x1="0" y1="0" x2="140.534" y2="281.899" gradientUnits="userSpaceOnUse">
<stop stop-color="#FFF4F4"/>
<stop offset="0.5" stop-color="#FFF1F1"/>
<stop offset="1" stop-color="#FDF4FF"/>
</linearGradient>
<linearGradient id="paint1_linear_106_24068" x1="124.473" y1="39.9927" x2="220.467" y2="135.987" gradientUnits="userSpaceOnUse">
<stop stop-color="#FDD819"/>
<stop offset="1" stop-color="#E80505"/>
</linearGradient>
<linearGradient id="paint2_linear_106_24068" x1="196.464" y1="31.998" x2="228.462" y2="63.996" gradientUnits="userSpaceOnUse">
<stop stop-color="#FB2C36"/>
<stop offset="1" stop-color="#EC003F"/>
</linearGradient>
<clipPath id="clip0_106_24068">
<path d="M0 24C0 10.7452 10.7452 0 24 0H329C342.255 0 353 10.7452 353 24V151.979C353 165.234 342.255 175.979 329 175.979H24C10.7452 175.979 0 165.234 0 151.979V24Z" fill="white"/>
</clipPath>
<clipPath id="clip1_106_24068">
<rect width="20.2045" height="20.2045" fill="white" transform="translate(116.116 25.5024)"/>
</clipPath>
<clipPath id="clip2_106_24068">
<rect width="20.8682" height="20.8682" fill="white" transform="translate(208.278 23.8643)"/>
</clipPath>
<clipPath id="clip3_106_24068">
<rect width="17.4419" height="17.4419" fill="white" transform="translate(27.2701 95.1982)"/>
</clipPath>
<clipPath id="clip4_106_24068">
<rect width="16.6197" height="16.6197" fill="white" transform="translate(300.629 98.1777)"/>
</clipPath>
</defs>
</svg>
