<svg width="24" height="24" viewBox="0 0 24 24" fill="none" xmlns="http://www.w3.org/2000/svg">
<path d="M4.12329 5.99603C5.02435 13.2367 10.7633 18.9757 18.004 19.8767C19.1001 20.0131 20 19.1046 20 18V16.6881C20 15.8048 19.4207 15.0262 18.5747 14.7724L16.5721 14.1716C16.2197 14.0659 15.8378 14.1622 15.5777 14.4223L15.3174 14.6826C14.7139 15.2861 13.785 15.4528 13.0634 14.9967C11.4271 13.9624 10.0376 12.5729 9.00328 10.9366C8.54719 10.215 8.71387 9.28613 9.31745 8.68255L9.57765 8.42235C9.83778 8.16222 9.93408 7.78026 9.82837 7.4279L9.22759 5.4253C8.9738 4.57934 8.19516 4 7.31194 4H6C4.89543 4 3.98689 4.89991 4.12329 5.99603Z" fill="url(#paint0_linear_5807_4676)" stroke="url(#paint1_linear_5807_4676)" stroke-width="2" stroke-linejoin="round"/>
<defs>
<linearGradient id="paint0_linear_5807_4676" x1="4" y1="4" x2="20" y2="20" gradientUnits="userSpaceOnUse">
<stop stop-color="#3C8CE7"/>
<stop offset="1" stop-color="#00EAFF"/>
</linearGradient>
<linearGradient id="paint1_linear_5807_4676" x1="4" y1="4" x2="20" y2="20" gradientUnits="userSpaceOnUse">
<stop stop-color="#3C8CE7"/>
<stop offset="1" stop-color="#00EAFF"/>
</linearGradient>
</defs>
</svg>
