<svg width="19" height="20" viewBox="0 0 19 20" fill="none" xmlns="http://www.w3.org/2000/svg">
<path d="M6 0.252035C2.54955 1.14012 0 4.27232 0 8C0 9.86035 0.636236 11.5749 1.70231 12.934C2.90057 14.4615 3.00385 15.9415 3.00266 17.9992C3.00201 19.1009 3.89217 20 5 20H10C11.1046 20 12 19.1046 12 18C12 17.4477 12.4477 17 13 17C14.6569 17 16 15.6569 16 14V12.0662L17.1152 11.3971C18.0914 10.8113 18.3928 9.51485 17.7269 8.56185C17.6536 8.45689 17.5815 8.35408 17.5106 8.25303C16.6786 7.06637 16.0161 6.12164 15.4868 4.76847C14.2219 1.5352 11.1621 0 8 0V4.17071C9.16519 4.58254 10 5.69378 10 7V8C10 9.65685 8.65685 11 7 11C5.34315 11 4 9.65685 4 8V7C4 5.69378 4.83481 4.58254 6 4.17071V0.252035Z" fill="#3B883E"/>
</svg>
