<svg width="40" height="40" viewBox="0 0 40 40" fill="none" xmlns="http://www.w3.org/2000/svg">
<path d="M33.3334 28.0003V12.0003C33.3334 10.1335 33.3334 9.20006 32.9701 8.48702C32.6505 7.85982 32.1406 7.34988 31.5134 7.0303C30.8003 6.66699 29.8669 6.66699 28.0001 6.66699H12.0001C10.1332 6.66699 9.19982 6.66699 8.48678 7.0303C7.85957 7.34988 7.34964 7.85982 7.03006 8.48702C6.66675 9.20006 6.66675 10.1335 6.66675 12.0003V28.0003C6.66675 29.8672 6.66675 30.8006 7.03006 31.5136C7.34964 32.1408 7.85957 32.6508 8.48678 32.9703C9.19982 33.3336 10.1332 33.3336 12.0001 33.3336H28.0001C29.8669 33.3336 30.8003 33.3336 31.5134 32.9703C32.1406 32.6508 32.6505 32.1408 32.9701 31.5136C33.3334 30.8006 33.3334 29.8672 33.3334 28.0003Z" stroke="white" stroke-width="2.5" stroke-linecap="round" stroke-linejoin="round"/>
</svg>
